<?xml version="1.0" encoding="UTF-8" standalone="no"?>
<!-- Created with Inkscape (http://www.inkscape.org/) -->

<svg
   xmlns:dc="http://purl.org/dc/elements/1.1/"
   xmlns:cc="http://creativecommons.org/ns#"
   xmlns:rdf="http://www.w3.org/1999/02/22-rdf-syntax-ns#"
   xmlns:svg="http://www.w3.org/2000/svg"
   xmlns="http://www.w3.org/2000/svg"
   xmlns:sodipodi="http://sodipodi.sourceforge.net/DTD/sodipodi-0.dtd"
   xmlns:inkscape="http://www.inkscape.org/namespaces/inkscape"
   version="1.1"
   id="svg2"
   width="1500"
   height="100"
   viewBox="0 0 1500 100"
   sodipodi:docname="buttons.svg"
   inkscape:version="0.92.4 (5da689c313, 2019-01-14)"
   inkscape:export-filename="C:\Users\dan\Documents\mobile blocks\buttons.png"
   inkscape:export-xdpi="300"
   inkscape:export-ydpi="300">
  <metadata
     id="metadata8">
    <rdf:RDF>
      <cc:Work
         rdf:about="">
        <dc:format>image/svg+xml</dc:format>
        <dc:type
           rdf:resource="http://purl.org/dc/dcmitype/StillImage" />
        <dc:title />
      </cc:Work>
    </rdf:RDF>
  </metadata>
  <defs
     id="defs6">
    <marker
       inkscape:isstock="true"
       style="overflow:visible"
       id="marker3672"
       refX="0"
       refY="0"
       orient="auto"
       inkscape:stockid="TriangleInS">
      <path
         transform="scale(-0.2)"
         style="fill:#000000;fill-opacity:1;fill-rule:evenodd;stroke:#000000;stroke-width:1.00000003pt;stroke-opacity:1"
         d="M 5.77,0 -2.88,5 V -5 Z"
         id="path3670"
         inkscape:connector-curvature="0" />
    </marker>
    <marker
       inkscape:isstock="true"
       style="overflow:visible"
       id="marker3512"
       refX="0"
       refY="0"
       orient="auto"
       inkscape:stockid="TriangleInS">
      <path
         transform="scale(-0.2)"
         style="fill:#000000;fill-opacity:1;fill-rule:evenodd;stroke:#000000;stroke-width:1.00000003pt;stroke-opacity:1"
         d="M 5.77,0 -2.88,5 V -5 Z"
         id="path3510"
         inkscape:connector-curvature="0" />
    </marker>
    <marker
       inkscape:isstock="true"
       style="overflow:visible"
       id="marker3502"
       refX="0"
       refY="0"
       orient="auto"
       inkscape:stockid="TriangleInS">
      <path
         transform="scale(-0.2)"
         style="fill:#000000;fill-opacity:1;fill-rule:evenodd;stroke:#000000;stroke-width:1.00000003pt;stroke-opacity:1"
         d="M 5.77,0 -2.88,5 V -5 Z"
         id="path3500"
         inkscape:connector-curvature="0" />
    </marker>
    <marker
       inkscape:isstock="true"
       style="overflow:visible"
       id="marker3184"
       refX="0"
       refY="0"
       orient="auto"
       inkscape:stockid="TriangleOutS">
      <path
         transform="scale(0.2)"
         style="fill:#000000;fill-opacity:1;fill-rule:evenodd;stroke:#000000;stroke-width:1.00000003pt;stroke-opacity:1"
         d="M 5.77,0 -2.88,5 V -5 Z"
         id="path3182"
         inkscape:connector-curvature="0" />
    </marker>
    <marker
       inkscape:isstock="true"
       style="overflow:visible"
       id="marker3036"
       refX="0"
       refY="0"
       orient="auto"
       inkscape:stockid="TriangleOutS">
      <path
         transform="scale(0.2)"
         style="fill:#000000;fill-opacity:1;fill-rule:evenodd;stroke:#000000;stroke-width:1.00000003pt;stroke-opacity:1"
         d="M 5.77,0 -2.88,5 V -5 Z"
         id="path3034"
         inkscape:connector-curvature="0" />
    </marker>
    <marker
       inkscape:isstock="true"
       style="overflow:visible"
       id="marker3026"
       refX="0"
       refY="0"
       orient="auto"
       inkscape:stockid="TriangleOutS">
      <path
         transform="scale(0.2)"
         style="fill:#000000;fill-opacity:1;fill-rule:evenodd;stroke:#000000;stroke-width:1.00000003pt;stroke-opacity:1"
         d="M 5.77,0 -2.88,5 V -5 Z"
         id="path3024"
         inkscape:connector-curvature="0" />
    </marker>
    <marker
       inkscape:isstock="true"
       style="overflow:visible"
       id="marker2738"
       refX="0"
       refY="0"
       orient="auto"
       inkscape:stockid="Arrow2Sstart">
      <path
         transform="matrix(0.3,0,0,0.3,-0.69,0)"
         d="M 8.7185878,4.0337352 -2.2072895,0.01601326 8.7185884,-4.0017078 c -1.7454984,2.3720609 -1.7354408,5.6174519 -6e-7,8.035443 z"
         style="fill:#000000;fill-opacity:1;fill-rule:evenodd;stroke:#000000;stroke-width:0.625;stroke-linejoin:round;stroke-opacity:1"
         id="path2736"
         inkscape:connector-curvature="0" />
    </marker>
    <marker
       inkscape:isstock="true"
       style="overflow:visible"
       id="marker2614"
       refX="0"
       refY="0"
       orient="auto"
       inkscape:stockid="Arrow2Sstart">
      <path
         transform="matrix(0.3,0,0,0.3,-0.69,0)"
         d="M 8.7185878,4.0337352 -2.2072895,0.01601326 8.7185884,-4.0017078 c -1.7454984,2.3720609 -1.7354408,5.6174519 -6e-7,8.035443 z"
         style="fill:#000000;fill-opacity:1;fill-rule:evenodd;stroke:#000000;stroke-width:0.625;stroke-linejoin:round;stroke-opacity:1"
         id="path2612"
         inkscape:connector-curvature="0" />
    </marker>
    <marker
       inkscape:isstock="true"
       style="overflow:visible"
       id="marker2604"
       refX="0"
       refY="0"
       orient="auto"
       inkscape:stockid="Arrow2Sstart">
      <path
         transform="matrix(0.3,0,0,0.3,-0.69,0)"
         d="M 8.7185878,4.0337352 -2.2072895,0.01601326 8.7185884,-4.0017078 c -1.7454984,2.3720609 -1.7354408,5.6174519 -6e-7,8.035443 z"
         style="fill:#000000;fill-opacity:1;fill-rule:evenodd;stroke:#000000;stroke-width:0.625;stroke-linejoin:round;stroke-opacity:1"
         id="path2602"
         inkscape:connector-curvature="0" />
    </marker>
    <marker
       inkscape:isstock="true"
       style="overflow:visible"
       id="marker2352"
       refX="0"
       refY="0"
       orient="auto"
       inkscape:stockid="Arrow1Sstart">
      <path
         transform="matrix(0.2,0,0,0.2,1.2,0)"
         style="fill:#000000;fill-opacity:1;fill-rule:evenodd;stroke:#000000;stroke-width:1.00000003pt;stroke-opacity:1"
         d="M 0,0 5,-5 -12.5,0 5,5 Z"
         id="path2350"
         inkscape:connector-curvature="0" />
    </marker>
    <marker
       inkscape:isstock="true"
       style="overflow:visible"
       id="marker2342"
       refX="0"
       refY="0"
       orient="auto"
       inkscape:stockid="Arrow1Sstart">
      <path
         transform="matrix(0.2,0,0,0.2,1.2,0)"
         style="fill:#000000;fill-opacity:1;fill-rule:evenodd;stroke:#000000;stroke-width:1.00000003pt;stroke-opacity:1"
         d="M 0,0 5,-5 -12.5,0 5,5 Z"
         id="path2340"
         inkscape:connector-curvature="0" />
    </marker>
    <marker
       inkscape:isstock="true"
       style="overflow:visible"
       id="marker2236"
       refX="0"
       refY="0"
       orient="auto"
       inkscape:stockid="Arrow1Sstart">
      <path
         transform="matrix(0.2,0,0,0.2,1.2,0)"
         style="fill:#000000;fill-opacity:1;fill-rule:evenodd;stroke:#000000;stroke-width:1.00000003pt;stroke-opacity:1"
         d="M 0,0 5,-5 -12.5,0 5,5 Z"
         id="path2234"
         inkscape:connector-curvature="0" />
    </marker>
    <marker
       inkscape:isstock="true"
       style="overflow:visible"
       id="marker2018"
       refX="0"
       refY="0"
       orient="auto"
       inkscape:stockid="Arrow1Sstart">
      <path
         transform="matrix(0.2,0,0,0.2,1.2,0)"
         style="fill:#000000;fill-opacity:1;fill-rule:evenodd;stroke:#000000;stroke-width:1.00000003pt;stroke-opacity:1"
         d="M 0,0 5,-5 -12.5,0 5,5 Z"
         id="path2016"
         inkscape:connector-curvature="0" />
    </marker>
    <marker
       inkscape:isstock="true"
       style="overflow:visible"
       id="marker1930"
       refX="0"
       refY="0"
       orient="auto"
       inkscape:stockid="Arrow1Sstart">
      <path
         transform="matrix(0.2,0,0,0.2,1.2,0)"
         style="fill:#000000;fill-opacity:1;fill-rule:evenodd;stroke:#000000;stroke-width:1.00000003pt;stroke-opacity:1"
         d="M 0,0 5,-5 -12.5,0 5,5 Z"
         id="path1928"
         inkscape:connector-curvature="0" />
    </marker>
    <marker
       inkscape:isstock="true"
       style="overflow:visible"
       id="marker1842"
       refX="0"
       refY="0"
       orient="auto"
       inkscape:stockid="Arrow1Sstart">
      <path
         transform="matrix(0.2,0,0,0.2,1.2,0)"
         style="fill:#000000;fill-opacity:1;fill-rule:evenodd;stroke:#000000;stroke-width:1.00000003pt;stroke-opacity:1"
         d="M 0,0 5,-5 -12.5,0 5,5 Z"
         id="path1840"
         inkscape:connector-curvature="0" />
    </marker>
    <marker
       inkscape:isstock="true"
       style="overflow:visible"
       id="marker1724"
       refX="0"
       refY="0"
       orient="auto"
       inkscape:stockid="Arrow1Send">
      <path
         transform="matrix(-0.2,0,0,-0.2,-1.2,0)"
         style="fill:#000000;fill-opacity:1;fill-rule:evenodd;stroke:#000000;stroke-width:1.00000003pt;stroke-opacity:1"
         d="M 0,0 5,-5 -12.5,0 5,5 Z"
         id="path1722"
         inkscape:connector-curvature="0" />
    </marker>
    <marker
       inkscape:isstock="true"
       style="overflow:visible"
       id="marker1648"
       refX="0"
       refY="0"
       orient="auto"
       inkscape:stockid="Arrow1Send">
      <path
         transform="matrix(-0.2,0,0,-0.2,-1.2,0)"
         style="fill:#000000;fill-opacity:1;fill-rule:evenodd;stroke:#000000;stroke-width:1.00000003pt;stroke-opacity:1"
         d="M 0,0 5,-5 -12.5,0 5,5 Z"
         id="path1646"
         inkscape:connector-curvature="0" />
    </marker>
    <marker
       inkscape:isstock="true"
       style="overflow:visible"
       id="marker1584"
       refX="0"
       refY="0"
       orient="auto"
       inkscape:stockid="Arrow1Send">
      <path
         transform="matrix(-0.2,0,0,-0.2,-1.2,0)"
         style="fill:#000000;fill-opacity:1;fill-rule:evenodd;stroke:#000000;stroke-width:1.00000003pt;stroke-opacity:1"
         d="M 0,0 5,-5 -12.5,0 5,5 Z"
         id="path1582"
         inkscape:connector-curvature="0" />
    </marker>
    <marker
       inkscape:isstock="true"
       style="overflow:visible"
       id="marker1464"
       refX="0"
       refY="0"
       orient="auto"
       inkscape:stockid="Arrow1Sstart">
      <path
         transform="matrix(0.2,0,0,0.2,1.2,0)"
         style="fill:#000000;fill-opacity:1;fill-rule:evenodd;stroke:#000000;stroke-width:1.00000003pt;stroke-opacity:1"
         d="M 0,0 5,-5 -12.5,0 5,5 Z"
         id="path1462"
         inkscape:connector-curvature="0" />
    </marker>
    <marker
       inkscape:isstock="true"
       style="overflow:visible"
       id="marker1418"
       refX="0"
       refY="0"
       orient="auto"
       inkscape:stockid="Arrow1Sstart">
      <path
         transform="matrix(0.2,0,0,0.2,1.2,0)"
         style="fill:#000000;fill-opacity:1;fill-rule:evenodd;stroke:#000000;stroke-width:1.00000003pt;stroke-opacity:1"
         d="M 0,0 5,-5 -12.5,0 5,5 Z"
         id="path1416"
         inkscape:connector-curvature="0" />
    </marker>
    <marker
       inkscape:isstock="true"
       style="overflow:visible"
       id="marker1408"
       refX="0"
       refY="0"
       orient="auto"
       inkscape:stockid="Arrow1Sstart">
      <path
         transform="matrix(0.2,0,0,0.2,1.2,0)"
         style="fill:#000000;fill-opacity:1;fill-rule:evenodd;stroke:#000000;stroke-width:1.00000003pt;stroke-opacity:1"
         d="M 0,0 5,-5 -12.5,0 5,5 Z"
         id="path1406"
         inkscape:connector-curvature="0" />
    </marker>
    <marker
       inkscape:isstock="true"
       style="overflow:visible"
       id="marker1276"
       refX="0"
       refY="0"
       orient="auto"
       inkscape:stockid="Arrow2Lstart">
      <path
         transform="matrix(1.1,0,0,1.1,1.1,0)"
         d="M 8.7185878,4.0337352 -2.2072895,0.01601326 8.7185884,-4.0017078 c -1.7454984,2.3720609 -1.7354408,5.6174519 -6e-7,8.035443 z"
         style="fill:#000000;fill-opacity:1;fill-rule:evenodd;stroke:#000000;stroke-width:0.625;stroke-linejoin:round;stroke-opacity:1"
         id="path1274"
         inkscape:connector-curvature="0" />
    </marker>
    <marker
       inkscape:isstock="true"
       style="overflow:visible"
       id="marker1248"
       refX="0"
       refY="0"
       orient="auto"
       inkscape:stockid="Arrow2Lstart">
      <path
         transform="matrix(1.1,0,0,1.1,1.1,0)"
         d="M 8.7185878,4.0337352 -2.2072895,0.01601326 8.7185884,-4.0017078 c -1.7454984,2.3720609 -1.7354408,5.6174519 -6e-7,8.035443 z"
         style="fill:#000000;fill-opacity:1;fill-rule:evenodd;stroke:#000000;stroke-width:0.625;stroke-linejoin:round;stroke-opacity:1"
         id="path1246"
         inkscape:connector-curvature="0" />
    </marker>
    <marker
       inkscape:isstock="true"
       style="overflow:visible"
       id="marker1226"
       refX="0"
       refY="0"
       orient="auto"
       inkscape:stockid="Arrow2Lstart">
      <path
         transform="matrix(1.1,0,0,1.1,1.1,0)"
         d="M 8.7185878,4.0337352 -2.2072895,0.01601326 8.7185884,-4.0017078 c -1.7454984,2.3720609 -1.7354408,5.6174519 -6e-7,8.035443 z"
         style="fill:#000000;fill-opacity:1;fill-rule:evenodd;stroke:#000000;stroke-width:0.625;stroke-linejoin:round;stroke-opacity:1"
         id="path1224"
         inkscape:connector-curvature="0" />
    </marker>
  </defs>
  <sodipodi:namedview
     pagecolor="#ffffff"
     bordercolor="#666666"
     borderopacity="1"
     objecttolerance="10"
     gridtolerance="10"
     guidetolerance="10"
     inkscape:pageopacity="0"
     inkscape:pageshadow="2"
     inkscape:window-width="1920"
     inkscape:window-height="1001"
     id="namedview4"
     showgrid="false"
     inkscape:zoom="2.8284271"
     inkscape:cx="838.6818"
     inkscape:cy="65.190603"
     inkscape:window-x="-9"
     inkscape:window-y="-9"
     inkscape:window-maximized="1"
     inkscape:current-layer="svg2"
     units="px" />
  <rect
     style="opacity:0.125;fill:#363629;fill-opacity:1;stroke:none;stroke-width:14.7111721;stroke-linecap:butt;stroke-linejoin:miter;stroke-miterlimit:4;stroke-dasharray:none;stroke-opacity:1;paint-order:normal"
     id="rect1208-1-0-3"
     width="100"
     height="100"
     x="1200"
     y="115.00001" />
  <rect
     style="opacity:0.125;fill:#363629;fill-opacity:1;stroke:none;stroke-width:14.7111721;stroke-linecap:butt;stroke-linejoin:miter;stroke-miterlimit:4;stroke-dasharray:none;stroke-opacity:1;paint-order:normal"
     id="rect1208-1-0-8"
     width="100"
     height="100"
     x="1300"
     y="115.00001" />
  <path
     style="opacity:1;fill:#878787;fill-opacity:1;stroke:none;stroke-width:0.79035431;stroke-linecap:round;stroke-linejoin:miter;stroke-miterlimit:4;stroke-dasharray:none;stroke-opacity:1;paint-order:stroke fill markers"
     d="m 551.85837,18.368176 a 31.632162,31.632162 0 0 0 -26.54105,14.493008 l -8.80859,-2.39909 7.27112,23.02744 18.21584,-16.0853 -7.94922,-2.16523 a 23.156493,23.156493 0 0 1 17.8119,-8.39569 23.156493,23.156493 0 0 1 23.15614,23.15613 23.156493,23.156493 0 0 1 -23.15614,23.15724 23.156493,23.156493 0 0 1 -18.80555,-9.6937 c -2.81781,0.74328 -5.18313,1.36404 -8.60942,2.26481 a 31.632162,31.632162 0 0 0 27.41497,15.90403 31.632162,31.632162 0 0 0 31.63239,-31.63238 31.632162,31.632162 0 0 0 -31.63239,-31.631268 z"
     id="path4535"
     inkscape:connector-curvature="0" />
  <path
     style="fill:#878787;fill-opacity:1;stroke-width:0.57291669"
     d="m 679.1581,70.612114 c 2.44349,-20.96089 -13.08204,-34.62946 -32.34521,-29.46387 -4.32134,0.96836 -8.19008,4.79536 -8.19008,4.79536 l 7.75248,4.54382 -22.97699,11.95068 -7.4344,-31.67186 9.70888,5.79992 c 10.53616,-10.25641 24.35428,-12.866426 36.33065,-10.05198 17.77583,3.46217 24.09968,19.72153 21.45498,34.67513 -0.85359,4.52135 -3.99134,12.51373 -4.82877,13.42937 -0.19697,0.21536 0.23146,-1.78991 0.52846,-4.00657 z"
     id="path4533-5"
     inkscape:connector-curvature="0"
     sodipodi:nodetypes="ccccccccccc" />
  <g
     id="g4997"
     transform="matrix(0.51295538,0,0,0.51295538,364.18973,212.8469)"
     style="fill:#878787;fill-opacity:1;stroke-width:1.11689377">
    <rect
       ry="9.8911648"
       y="-369.37256"
       x="112.93214"
       height="19.78233"
       width="108.7068"
       id="rect4603"
       style="opacity:1;fill:#878787;fill-opacity:1;stroke:none;stroke-width:1.54078567;stroke-linecap:round;stroke-linejoin:miter;stroke-miterlimit:4;stroke-dasharray:none;stroke-opacity:1;paint-order:stroke fill markers" />
    <rect
       ry="9.8911648"
       y="-327.35913"
       x="112.93214"
       height="19.78233"
       width="108.7068"
       id="rect4603-0"
       style="opacity:1;fill:#878787;fill-opacity:1;stroke:none;stroke-width:1.54078567;stroke-linecap:round;stroke-linejoin:miter;stroke-miterlimit:4;stroke-dasharray:none;stroke-opacity:1;paint-order:stroke fill markers" />
    <rect
       ry="9.8911648"
       y="-285.3457"
       x="112.93214"
       height="19.78233"
       width="108.7068"
       id="rect4603-9"
       style="opacity:1;fill:#878787;fill-opacity:1;stroke:none;stroke-width:1.54078567;stroke-linecap:round;stroke-linejoin:miter;stroke-miterlimit:4;stroke-dasharray:none;stroke-opacity:1;paint-order:stroke fill markers" />
  </g>
  <g
     style="stroke-width:1.12177217"
     id="g1269"
     transform="matrix(0.51072464,0,0,0.51072464,102.90608,-97.290557)">
    <path
       sodipodi:nodetypes="cccccccc"
       inkscape:connector-curvature="0"
       id="path4533-2"
       d="m 88.860467,331.04733 -12.884,-12.884 -21.670779,21.34485 -13.721794,-14.32248 20.77536,-21.16858 -11.197213,-11.91889 h 38.698426 z"
       style="fill:#878787;fill-opacity:1;stroke-width:1.12177217" />
    <path
       sodipodi:nodetypes="cccccccc"
       inkscape:connector-curvature="0"
       id="path4533-2-26-4"
       d="m 96.115147,244.99058 12.884003,12.884 21.67078,-21.34485 13.72179,14.32248 -20.77536,21.16859 11.19722,11.91888 H 96.115147 Z"
       style="fill:#878787;fill-opacity:1;stroke-width:1.12177217" />
    <path
       inkscape:connector-curvature="0"
       id="rect4823-9"
       d="m 103.65705,220.34371 v 9.40956 H 151.4448 V 277.541 h 9.40956 v -57.19729 z"
       style="opacity:1;fill:#878787;fill-opacity:1;stroke:none;stroke-width:1.54751551;stroke-linecap:round;stroke-linejoin:miter;stroke-miterlimit:4;stroke-dasharray:none;stroke-opacity:1;paint-order:stroke fill markers" />
    <path
       inkscape:connector-curvature="0"
       id="rect4823-9-7"
       d="m 80.761427,220.34371 v 9.40956 H 32.973684 V 277.541 h -9.409558 v -57.19729 z"
       style="opacity:1;fill:#878787;fill-opacity:1;stroke:none;stroke-width:1.54751551;stroke-linecap:round;stroke-linejoin:miter;stroke-miterlimit:4;stroke-dasharray:none;stroke-opacity:1;paint-order:stroke fill markers" />
    <path
       inkscape:connector-curvature="0"
       id="rect4823-9-7-6"
       d="m 80.761397,356.44729 v -9.40957 H 32.973675 V 299.25 h -9.409559 v 57.19729 z"
       style="opacity:1;fill:#878787;fill-opacity:1;stroke:none;stroke-width:1.54751551;stroke-linecap:round;stroke-linejoin:miter;stroke-miterlimit:4;stroke-dasharray:none;stroke-opacity:1;paint-order:stroke fill markers" />
    <path
       inkscape:connector-curvature="0"
       id="rect4823-9-7-6-3"
       d="m 103.65705,356.44729 v -9.40957 h 47.78772 V 299.25 h 9.40956 v 57.19729 z"
       style="opacity:1;fill:#878787;fill-opacity:1;stroke:none;stroke-width:1.54751551;stroke-linecap:round;stroke-linejoin:miter;stroke-miterlimit:4;stroke-dasharray:none;stroke-opacity:1;paint-order:stroke fill markers" />
  </g>
  <g
     style="stroke-width:1.12177217"
     id="g1261"
     transform="matrix(0.51072464,0,0,0.51072464,2.9063437,7.8857101)">
    <path
       sodipodi:nodetypes="cccccccc"
       inkscape:connector-curvature="0"
       id="path4533-2-5"
       d="M 139.78693,74.242789 126.90293,61.358791 105.23216,82.703641 91.510367,68.38116 112.28572,47.212578 101.08851,35.293694 h 38.69842 z"
       style="fill:#878787;fill-opacity:1;stroke-width:1.12177217" />
    <path
       inkscape:connector-curvature="0"
       id="rect4823-9-2"
       d="m 103.65705,14.408322 v 9.409563 h 47.78775 v 47.787723 h 9.40953 V 14.408322 Z"
       style="opacity:1;fill:#878787;fill-opacity:1;stroke:none;stroke-width:1.54751551;stroke-linecap:round;stroke-linejoin:miter;stroke-miterlimit:4;stroke-dasharray:none;stroke-opacity:1;paint-order:stroke fill markers" />
    <path
       inkscape:connector-curvature="0"
       id="rect4823-9-7-5"
       d="m 80.761427,14.408322 v 9.409563 H 32.973684 V 71.605608 H 23.564126 V 14.408322 Z"
       style="opacity:1;fill:#878787;fill-opacity:1;stroke:none;stroke-width:1.54751551;stroke-linecap:round;stroke-linejoin:miter;stroke-miterlimit:4;stroke-dasharray:none;stroke-opacity:1;paint-order:stroke fill markers" />
    <path
       inkscape:connector-curvature="0"
       id="rect4823-9-7-6-0"
       d="m 80.761427,150.51195 v -9.40957 H 32.973684 V 93.314662 h -9.409558 v 57.197288 z"
       style="opacity:1;fill:#878787;fill-opacity:1;stroke:none;stroke-width:1.54751551;stroke-linecap:round;stroke-linejoin:miter;stroke-miterlimit:4;stroke-dasharray:none;stroke-opacity:1;paint-order:stroke fill markers" />
    <path
       inkscape:connector-curvature="0"
       id="rect4823-9-7-6-3-0"
       d="m 103.65705,150.51195 v -9.40957 H 151.4448 V 93.314662 h 9.40953 v 57.197288 z"
       style="opacity:1;fill:#878787;fill-opacity:1;stroke:none;stroke-width:1.54751551;stroke-linecap:round;stroke-linejoin:miter;stroke-miterlimit:4;stroke-dasharray:none;stroke-opacity:1;paint-order:stroke fill markers" />
    <path
       sodipodi:nodetypes="cccccccc"
       inkscape:connector-curvature="0"
       id="path4533-2-26-4-8"
       d="M 44.771606,90.865905 57.655605,103.7499 79.326387,82.405053 93.048177,96.727533 72.272817,117.89612 83.470027,129.815 H 44.771606 Z"
       style="fill:#878787;fill-opacity:1;stroke-width:1.12177217" />
  </g>
  <g
     id="g5452"
     style="display:inline"
     transform="translate(0,-74.545452)">
    <rect
       y="0"
       x="698.18182"
       height="174.54546"
       width="174.54546"
       id="rect4999-1"
       style="display:none;opacity:1;fill:none;fill-opacity:1;stroke:#240000;stroke-width:1.37952757;stroke-linecap:round;stroke-linejoin:miter;stroke-miterlimit:4;stroke-dasharray:none;stroke-opacity:1;paint-order:stroke fill markers" />
    <rect
       y="0"
       x="523.63635"
       height="174.54546"
       width="174.54546"
       id="rect4999-46"
       style="display:none;opacity:1;fill:none;fill-opacity:1;stroke:#240000;stroke-width:1.37952757;stroke-linecap:round;stroke-linejoin:miter;stroke-miterlimit:4;stroke-dasharray:none;stroke-opacity:1;paint-order:stroke fill markers" />
    <rect
       y="0"
       x="349.09091"
       height="174.54546"
       width="174.54546"
       id="rect4999-47"
       style="display:none;opacity:1;fill:none;fill-opacity:1;stroke:#240000;stroke-width:1.37952757;stroke-linecap:round;stroke-linejoin:miter;stroke-miterlimit:4;stroke-dasharray:none;stroke-opacity:1;paint-order:stroke fill markers" />
    <rect
       y="0"
       x="174.54546"
       height="174.54546"
       width="174.54546"
       id="rect4999-4"
       style="display:none;opacity:1;fill:none;fill-opacity:1;stroke:#240000;stroke-width:1.37952757;stroke-linecap:round;stroke-linejoin:miter;stroke-miterlimit:4;stroke-dasharray:none;stroke-opacity:1;paint-order:stroke fill markers" />
    <rect
       y="0"
       x="0"
       height="174.54546"
       width="174.54546"
       id="rect4999"
       style="display:none;opacity:1;fill:none;fill-opacity:1;stroke:#240000;stroke-width:1.37952757;stroke-linecap:round;stroke-linejoin:miter;stroke-miterlimit:4;stroke-dasharray:none;stroke-opacity:1;paint-order:stroke fill markers" />
    <rect
       y="0"
       x="872.72729"
       height="174.54546"
       width="174.54546"
       id="rect4999-7"
       style="display:none;opacity:1;fill:none;fill-opacity:1;stroke:#240000;stroke-width:1.37952757;stroke-linecap:round;stroke-linejoin:miter;stroke-miterlimit:4;stroke-dasharray:none;stroke-opacity:1;paint-order:stroke fill markers" />
    <rect
       y="0"
       x="1047.2727"
       height="174.54546"
       width="174.54546"
       id="rect4999-4-2"
       style="display:none;opacity:1;fill:none;fill-opacity:1;stroke:#240000;stroke-width:1.37952757;stroke-linecap:round;stroke-linejoin:miter;stroke-miterlimit:4;stroke-dasharray:none;stroke-opacity:1;paint-order:stroke fill markers" />
    <rect
       y="0"
       x="1221.8182"
       height="174.54546"
       width="174.54546"
       id="rect4999-47-0"
       style="display:none;opacity:1;fill:none;fill-opacity:1;stroke:#240000;stroke-width:1.37952757;stroke-linecap:round;stroke-linejoin:miter;stroke-miterlimit:4;stroke-dasharray:none;stroke-opacity:1;paint-order:stroke fill markers" />
  </g>
  <path
     style="fill:#878787;fill-opacity:1;stroke:none;stroke-width:0.57291669px;stroke-linecap:butt;stroke-linejoin:miter;stroke-opacity:1"
     d="m 918.47926,50.000024 c 3.5e-4,17.40788 14.11214,31.51967 31.52004,31.52005 17.40825,1.2e-4 31.52056,-14.11182 31.5209,-31.52005 1.2e-4,-17.40856 -14.11236,-31.520152 -31.5209,-31.520095 -17.40824,4.01e-4 -31.52015,14.111885 -31.52004,31.520095 z m 11.86986,-10.10601 39.30123,-0.0712 -19.65019,27.42868 z"
     id="path4679-32-4-5-8"
     inkscape:connector-curvature="0" />
  <path
     inkscape:connector-curvature="0"
     style="fill:#878787;fill-opacity:1;stroke:none;stroke-width:0.57291669px;stroke-linecap:butt;stroke-linejoin:miter;stroke-opacity:1"
     d="m 818.47929,50.000004 c 4.1e-4,-17.4079 14.11215,-31.519699 31.52005,-31.520043 17.40824,-1.71e-4 31.52055,14.111793 31.52095,31.520043 1.2e-4,17.40859 -14.11237,31.5201 -31.52095,31.52004 -17.40819,-4e-4 -31.52016,-14.11186 -31.52005,-31.52004 z m 11.86986,10.10602 39.30128,0.0712 -19.65018,-27.42867 z"
     id="path4679-32-4-5-8-1" />
  <path
     sodipodi:type="star"
     style="opacity:0.997;fill:#878787;fill-opacity:1;stroke:none;stroke-width:3.77952766;stroke-linecap:butt;stroke-linejoin:miter;stroke-miterlimit:4;stroke-dasharray:none;stroke-opacity:1;paint-order:normal"
     id="path860"
     sodipodi:sides="5"
     sodipodi:cx="1386.8759"
     sodipodi:cy="61.613316"
     sodipodi:r1="61.075848"
     sodipodi:r2="31.068211"
     sodipodi:arg1="1.0471976"
     sodipodi:arg2="1.6755161"
     inkscape:flatsided="false"
     inkscape:rounded="0"
     inkscape:randomized="0"
     d="m 1417.4138,114.50655 -33.7855,-21.995219 -37.6202,14.490179 10.4785,-38.928751 -25.4063,-31.301231 40.2614,-2.064072 21.9183,-33.83540785 14.4045,37.65308785 38.9525,10.3898 -31.3589,25.33496 z"
     inkscape:transform-center-x="-0.02474629"
     inkscape:transform-center-y="-3.3178149"
     transform="matrix(0.56991377,-0.0585815,0.0585815,0.56991377,257.09107,94.084354)" />
  <g
     id="g1421"
     transform="matrix(-0.66633674,0,0,0.66633674,353.01451,-133.6431)"
     style="stroke-width:0.85980052">
    <circle
       r="2.4869537"
       cy="245.78331"
       cx="194.27817"
       id="path4626-89-0"
       style="opacity:1;fill:#878787;fill-opacity:1;stroke:none;stroke-width:1.18611848;stroke-linecap:round;stroke-linejoin:miter;stroke-miterlimit:4;stroke-dasharray:none;stroke-opacity:1;paint-order:stroke fill markers" />
    <circle
       r="2.4869537"
       cy="230.2981"
       cx="194.27817"
       id="path4626-8-3-5"
       style="opacity:1;fill:#878787;fill-opacity:1;stroke:none;stroke-width:1.18611848;stroke-linecap:round;stroke-linejoin:miter;stroke-miterlimit:4;stroke-dasharray:none;stroke-opacity:1;paint-order:stroke fill markers" />
    <circle
       r="2.4869537"
       cy="238.0407"
       cx="194.27817"
       id="path4626-1-9-0"
       style="opacity:1;fill:#878787;fill-opacity:1;stroke:none;stroke-width:1.18611848;stroke-linecap:round;stroke-linejoin:miter;stroke-miterlimit:4;stroke-dasharray:none;stroke-opacity:1;paint-order:stroke fill markers" />
    <path
       inkscape:connector-curvature="0"
       id="path4679-8"
       d="m 194.27817,214.5891 -13.74538,16.6617 4.76093,-0.006 8.98445,-10.89231 8.98445,10.86543 4.76094,-0.006 z"
       style="fill:#878787;fill-opacity:1;stroke:none;stroke-width:0.85980052px;stroke-linecap:butt;stroke-linejoin:miter;stroke-opacity:1" />
    <circle
       r="2.4869537"
       cy="253.52588"
       cx="194.27817"
       id="path4626-89-1-8"
       style="opacity:1;fill:#878787;fill-opacity:1;stroke:none;stroke-width:1.18611848;stroke-linecap:round;stroke-linejoin:miter;stroke-miterlimit:4;stroke-dasharray:none;stroke-opacity:1;paint-order:stroke fill markers" />
    <circle
       r="16.864655"
       cy="270.92294"
       cx="194.27817"
       id="path4626-89-7-0"
       style="opacity:1;fill:#878787;fill-opacity:1;stroke:none;stroke-width:1.1861186;stroke-linecap:round;stroke-linejoin:miter;stroke-miterlimit:4;stroke-dasharray:none;stroke-opacity:1;paint-order:stroke fill markers" />
  </g>
  <g
     id="g1383"
     transform="matrix(0.89572266,0,0,0.89572266,36.408039,-151.53999)"
     style="stroke-width:0.63961393">
    <path
       sodipodi:nodetypes="cccccccc"
       inkscape:connector-curvature="0"
       id="path4533-2-5-8"
       d="m 272.82664,242.53756 -4.70512,-4.70512 -7.91397,7.79494 -5.01107,-5.23044 7.58697,-7.73057 -4.08912,-4.35266 h 14.13231 z"
       style="fill:#878787;fill-opacity:1;stroke-width:0.63961393" />
    <path
       inkscape:connector-curvature="0"
       id="rect4823-9-2-1"
       d="m 259.63234,220.68656 v 3.43629 h 17.45165 v 17.45163 h 3.43628 v -20.88792 z"
       style="opacity:1;fill:#878787;fill-opacity:1;stroke:none;stroke-width:0.88236505;stroke-linecap:round;stroke-linejoin:miter;stroke-miterlimit:4;stroke-dasharray:none;stroke-opacity:1;paint-order:stroke fill markers" />
    <path
       inkscape:connector-curvature="0"
       id="rect4823-9-7-5-5"
       d="m 251.27107,220.68656 v 3.43629 h -17.45164 v 17.45163 h -3.43629 v -20.88792 z"
       style="opacity:1;fill:#878787;fill-opacity:1;stroke:none;stroke-width:0.88236505;stroke-linecap:round;stroke-linejoin:miter;stroke-miterlimit:4;stroke-dasharray:none;stroke-opacity:1;paint-order:stroke fill markers" />
    <path
       inkscape:connector-curvature="0"
       id="rect4823-9-7-6-0-9"
       d="m 251.27107,270.39035 v -3.43628 h -17.45164 v -17.45164 h -3.43629 v 20.88792 z"
       style="opacity:1;fill:#878787;fill-opacity:1;stroke:none;stroke-width:0.88236505;stroke-linecap:round;stroke-linejoin:miter;stroke-miterlimit:4;stroke-dasharray:none;stroke-opacity:1;paint-order:stroke fill markers" />
    <path
       inkscape:connector-curvature="0"
       id="rect4823-9-7-6-3-0-1"
       d="m 259.63234,270.39035 v -3.43628 h 17.45165 v -17.45164 h 3.43628 v 20.88792 z"
       style="opacity:1;fill:#878787;fill-opacity:1;stroke:none;stroke-width:0.88236505;stroke-linecap:round;stroke-linejoin:miter;stroke-miterlimit:4;stroke-dasharray:none;stroke-opacity:1;paint-order:stroke fill markers" />
    <path
       sodipodi:nodetypes="cccccccc"
       inkscape:connector-curvature="0"
       id="path4533-2-26-4-8-0"
       d="m 238.12792,248.60817 4.70512,4.70511 7.91396,-7.79494 5.01108,5.23044 -7.58697,7.73057 4.08912,4.35267 h -14.13231 z"
       style="fill:#878787;fill-opacity:1;stroke-width:0.63961393" />
  </g>
  <g
     id="g1461"
     transform="matrix(0.57291666,0,0,0.57291666,-4.2848627,1.7493941)">
    <g
       style="stroke-width:0.63961393"
       transform="matrix(1.5634432,0,0,1.5634432,245.5726,-385.13951)"
       id="g1375">
      <path
         style="fill:#878787;fill-opacity:1;stroke-width:0.63961393"
         d="m 254.22876,336.32021 -4.70511,-4.70511 -7.91397,7.79494 -5.01107,-5.23044 7.58696,-7.73057 -4.08912,-4.35267 h 14.13231 z"
         id="path4533-2-0"
         inkscape:connector-curvature="0"
         sodipodi:nodetypes="cccccccc" />
      <path
         style="fill:#878787;fill-opacity:1;stroke-width:0.63961393"
         d="m 256.87811,304.89308 4.70511,4.70512 7.91397,-7.79494 5.01108,5.23044 -7.58697,7.73057 4.08912,4.35266 h -14.13231 z"
         id="path4533-2-26-4-0"
         inkscape:connector-curvature="0"
         sodipodi:nodetypes="cccccccc" />
      <path
         style="opacity:1;fill:#878787;fill-opacity:1;stroke:none;stroke-width:0.88236505;stroke-linecap:round;stroke-linejoin:miter;stroke-miterlimit:4;stroke-dasharray:none;stroke-opacity:1;paint-order:stroke fill markers"
         d="m 259.63234,295.89227 v 3.43629 h 17.45164 v 17.45163 h 3.43629 v -20.88792 z"
         id="rect4823-9-79"
         inkscape:connector-curvature="0" />
      <path
         style="opacity:1;fill:#878787;fill-opacity:1;stroke:none;stroke-width:0.88236505;stroke-linecap:round;stroke-linejoin:miter;stroke-miterlimit:4;stroke-dasharray:none;stroke-opacity:1;paint-order:stroke fill markers"
         d="m 251.27107,295.89227 v 3.43629 h -17.45164 v 17.45163 h -3.43629 v -20.88792 z"
         id="rect4823-9-7-1"
         inkscape:connector-curvature="0" />
      <path
         style="opacity:1;fill:#878787;fill-opacity:1;stroke:none;stroke-width:0.88236505;stroke-linecap:round;stroke-linejoin:miter;stroke-miterlimit:4;stroke-dasharray:none;stroke-opacity:1;paint-order:stroke fill markers"
         d="m 251.27106,345.59605 v -3.43629 h -17.45164 v -17.45164 h -3.43628 v 20.88793 z"
         id="rect4823-9-7-6-03"
         inkscape:connector-curvature="0" />
      <path
         style="opacity:1;fill:#878787;fill-opacity:1;stroke:none;stroke-width:0.88236505;stroke-linecap:round;stroke-linejoin:miter;stroke-miterlimit:4;stroke-dasharray:none;stroke-opacity:1;paint-order:stroke fill markers"
         d="m 259.63234,345.59605 v -3.43629 h 17.45164 v -17.45164 h 3.43629 v 20.88793 z"
         id="rect4823-9-7-6-3-8"
         inkscape:connector-curvature="0" />
    </g>
    <g
       style="stroke-width:0.85980052"
       transform="matrix(1.1630605,0,0,-1.1630605,445.10068,434.70507)"
       id="g1429">
      <circle
         style="opacity:1;fill:#878787;fill-opacity:1;stroke:none;stroke-width:1.18611848;stroke-linecap:round;stroke-linejoin:miter;stroke-miterlimit:4;stroke-dasharray:none;stroke-opacity:1;paint-order:stroke fill markers"
         id="path4626-89-0-82"
         cx="109.31238"
         cy="320.35556"
         r="2.4869537" />
      <circle
         style="opacity:1;fill:#878787;fill-opacity:1;stroke:none;stroke-width:1.18611848;stroke-linecap:round;stroke-linejoin:miter;stroke-miterlimit:4;stroke-dasharray:none;stroke-opacity:1;paint-order:stroke fill markers"
         id="path4626-8-3-5-2"
         cx="109.31238"
         cy="304.87036"
         r="2.4869537" />
      <circle
         style="opacity:1;fill:#878787;fill-opacity:1;stroke:none;stroke-width:1.18611848;stroke-linecap:round;stroke-linejoin:miter;stroke-miterlimit:4;stroke-dasharray:none;stroke-opacity:1;paint-order:stroke fill markers"
         id="path4626-1-9-0-0"
         cx="109.31238"
         cy="312.61295"
         r="2.4869537" />
      <path
         style="fill:#878787;fill-opacity:1;stroke:none;stroke-width:0.85980052px;stroke-linecap:butt;stroke-linejoin:miter;stroke-opacity:1"
         d="m 109.31238,289.16136 -13.745382,16.66169 4.760932,-0.006 8.98445,-10.89231 8.98445,10.86542 4.76094,-0.006 z"
         id="path4679-8-4"
         inkscape:connector-curvature="0" />
      <circle
         style="opacity:1;fill:#878787;fill-opacity:1;stroke:none;stroke-width:1.18611848;stroke-linecap:round;stroke-linejoin:miter;stroke-miterlimit:4;stroke-dasharray:none;stroke-opacity:1;paint-order:stroke fill markers"
         id="path4626-89-1-8-1"
         cx="109.31238"
         cy="328.09811"
         r="2.4869537" />
      <circle
         style="opacity:1;fill:#878787;fill-opacity:1;stroke:none;stroke-width:1.1861186;stroke-linecap:round;stroke-linejoin:miter;stroke-miterlimit:4;stroke-dasharray:none;stroke-opacity:1;paint-order:stroke fill markers"
         id="path4626-89-7-0-4"
         cx="109.31238"
         cy="345.49518"
         r="16.864655" />
    </g>
  </g>
  <rect
     style="opacity:0.125;fill:#878787;fill-opacity:1;stroke:none;stroke-width:14.7111721;stroke-linecap:butt;stroke-linejoin:miter;stroke-miterlimit:4;stroke-dasharray:none;stroke-opacity:1;paint-order:normal"
     id="rect1208"
     width="100"
     height="100"
     x="0"
     y="138" />
  <rect
     style="opacity:0.125;fill:#363629;fill-opacity:1;stroke:none;stroke-width:14.7111721;stroke-linecap:butt;stroke-linejoin:miter;stroke-miterlimit:4;stroke-dasharray:none;stroke-opacity:1;paint-order:normal"
     id="rect1208-4"
     width="100"
     height="100"
     x="100"
     y="138" />
  <rect
     style="opacity:0.125;fill:#363629;fill-opacity:1;stroke:none;stroke-width:14.7111721;stroke-linecap:butt;stroke-linejoin:miter;stroke-miterlimit:4;stroke-dasharray:none;stroke-opacity:1;paint-order:normal"
     id="rect1208-1"
     width="100"
     height="100"
     x="200"
     y="138" />
  <rect
     style="opacity:0.125;fill:#363629;fill-opacity:1;stroke:none;stroke-width:14.7111721;stroke-linecap:butt;stroke-linejoin:miter;stroke-miterlimit:4;stroke-dasharray:none;stroke-opacity:1;paint-order:normal"
     id="rect1208-0"
     width="100"
     height="100"
     x="300"
     y="138" />
  <rect
     style="opacity:0.125;fill:#363629;fill-opacity:1;stroke:none;stroke-width:14.7111721;stroke-linecap:butt;stroke-linejoin:miter;stroke-miterlimit:4;stroke-dasharray:none;stroke-opacity:1;paint-order:normal"
     id="rect1208-9"
     width="100"
     height="100"
     x="400"
     y="138" />
  <rect
     style="opacity:0.125;fill:#363629;fill-opacity:1;stroke:none;stroke-width:14.7111721;stroke-linecap:butt;stroke-linejoin:miter;stroke-miterlimit:4;stroke-dasharray:none;stroke-opacity:1;paint-order:normal"
     id="rect1208-4-1"
     width="100"
     height="100"
     x="500"
     y="138" />
  <rect
     style="opacity:0.125;fill:#363629;fill-opacity:1;stroke:none;stroke-width:14.7111721;stroke-linecap:butt;stroke-linejoin:miter;stroke-miterlimit:4;stroke-dasharray:none;stroke-opacity:1;paint-order:normal"
     id="rect1208-1-6"
     width="100"
     height="100"
     x="600"
     y="138" />
  <rect
     style="opacity:0.125;fill:#363629;fill-opacity:1;stroke:none;stroke-width:14.7111721;stroke-linecap:butt;stroke-linejoin:miter;stroke-miterlimit:4;stroke-dasharray:none;stroke-opacity:1;paint-order:normal"
     id="rect1208-0-0"
     width="100"
     height="100"
     x="700"
     y="138" />
  <rect
     style="opacity:0.125;fill:#363629;fill-opacity:1;stroke:none;stroke-width:14.7111721;stroke-linecap:butt;stroke-linejoin:miter;stroke-miterlimit:4;stroke-dasharray:none;stroke-opacity:1;paint-order:normal"
     id="rect1208-2"
     width="100"
     height="100"
     x="800"
     y="138" />
  <rect
     style="opacity:0.125;fill:#363629;fill-opacity:1;stroke:none;stroke-width:14.7111721;stroke-linecap:butt;stroke-linejoin:miter;stroke-miterlimit:4;stroke-dasharray:none;stroke-opacity:1;paint-order:normal"
     id="rect1208-4-0"
     width="100"
     height="100"
     x="900"
     y="138" />
  <rect
     style="opacity:0.125;fill:#363629;fill-opacity:1;stroke:none;stroke-width:14.7111721;stroke-linecap:butt;stroke-linejoin:miter;stroke-miterlimit:4;stroke-dasharray:none;stroke-opacity:1;paint-order:normal"
     id="rect1208-1-0"
     width="100"
     height="100"
     x="1000"
     y="137.99998" />
  <rect
     style="opacity:0.125;fill:#363629;fill-opacity:1;stroke:none;stroke-width:14.7111721;stroke-linecap:butt;stroke-linejoin:miter;stroke-miterlimit:4;stroke-dasharray:none;stroke-opacity:1;paint-order:normal"
     id="rect1208-0-3"
     width="100"
     height="100"
     x="1100"
     y="115" />
  <path
     style="color:#000000;font-style:normal;font-variant:normal;font-weight:normal;font-stretch:normal;font-size:medium;line-height:normal;font-family:sans-serif;font-variant-ligatures:normal;font-variant-position:normal;font-variant-caps:normal;font-variant-numeric:normal;font-variant-alternates:normal;font-feature-settings:normal;text-indent:0;text-align:start;text-decoration:none;text-decoration-line:none;text-decoration-style:solid;text-decoration-color:#000000;letter-spacing:normal;word-spacing:normal;text-transform:none;writing-mode:lr-tb;direction:ltr;text-orientation:mixed;dominant-baseline:auto;baseline-shift:baseline;text-anchor:start;white-space:normal;shape-padding:0;clip-rule:nonzero;display:inline;overflow:visible;visibility:visible;opacity:1;isolation:auto;mix-blend-mode:normal;color-interpolation:sRGB;color-interpolation-filters:linearRGB;solid-color:#000000;solid-opacity:1;vector-effect:none;fill:#7d7d7b;fill-opacity:1;fill-rule:nonzero;stroke:none;stroke-width:1.73472691;stroke-linecap:butt;stroke-linejoin:miter;stroke-miterlimit:4;stroke-dasharray:none;stroke-dashoffset:0;stroke-opacity:1;color-rendering:auto;image-rendering:auto;shape-rendering:auto;text-rendering:auto;enable-background:accumulate"
     d="m 1150.9643,12.297931 c -5.8972,-0.199675 -11.8261,1.498243 -16.7173,4.993838 -5.0925,3.639416 -8.6385,8.944222 -10.0142,14.986811 -0.5314,2.333941 -0.6398,6.191413 -0.256,8.670348 0.4989,3.221591 1.6487,6.304708 3.4011,9.129471 1.2664,2.041633 2.5506,3.516304 5.1969,5.984482 3.1976,2.982419 4.4384,4.904161 5.2675,8.091148 0.7813,3.003736 2.4595,4.946039 5.0768,5.751389 0.4827,0.148551 0.9898,0.244627 1.9937,0.280771 1.0038,0.03615 2.5765,0.03185 5.43,0.0159 2.6078,-0.09363 5.7144,0.10101 7.6603,-0.623345 2.0031,-0.977476 3.5527,-2.785874 4.0438,-4.921438 0.428,-1.861269 1.3497,-3.895427 2.5234,-5.550082 0.1038,-0.146386 0.5598,-0.67503 1.1213,-1.267884 0.5615,-0.592855 1.2522,-1.290086 1.9283,-1.940675 3.9477,-3.798576 5.5512,-6.06272 7.1217,-10.074203 1.1584,-2.958627 1.6295,-6.023946 1.4851,-9.555041 -0.2646,-6.474028 -2.8447,-12.022868 -7.7292,-16.659076 -2.3555,-2.235834 -4.305,-3.561437 -7.1835,-4.88259 -3.2854,-1.508012 -6.8113,-2.310011 -10.3497,-2.429816 z m -0.957,5.341711 c 1.5102,0 3.0206,0.111187 4.1144,0.331981 8.1191,1.638907 14.1365,7.18942 16.1629,14.866733 0.385,1.459892 0.4042,1.732835 0.4132,4.303389 0.01,3.143201 -0.1011,3.886226 -0.9323,6.316463 -1.1262,3.292169 -2.6156,5.457317 -5.974,8.626202 -2.5152,2.373466 -3.5586,3.594049 -4.7802,5.604823 -0.8554,1.408358 -1.7487,3.567725 -2.1684,5.226931 -0.1687,0.666662 -0.3313,1.071782 -0.4839,1.306733 -0.1524,0.234951 -0.2815,0.342651 -0.5915,0.492674 -0.2643,0.127954 -0.2562,0.145416 -1.0189,0.183649 -0.7627,0.03824 -2.1548,0.04215 -4.7749,0.03885 -2.5503,-0.0032 -3.9437,-0.011 -4.7219,-0.04945 -0.7781,-0.03844 -0.8067,-0.06407 -0.9995,-0.160693 -0.3136,-0.157331 -0.4019,-0.228991 -0.5526,-0.475014 -0.1508,-0.246024 -0.3322,-0.718003 -0.5563,-1.522168 -1.1686,-4.194065 -2.8534,-6.810973 -6.675,-10.413246 -1.3811,-1.301986 -2.9498,-2.935639 -3.2985,-3.383379 -1.7552,-2.254326 -3.2104,-5.575464 -3.719,-8.511421 -0.3666,-2.116064 -0.2248,-5.685987 0.295,-7.647917 0.9613,-3.628779 2.6961,-6.619004 5.3028,-9.157725 2.9501,-2.873319 6.6352,-4.795841 10.8442,-5.645438 1.0938,-0.220796 2.6042,-0.331981 4.1144,-0.33198 z m -0.016,53.288206 c -3.0495,0 -4.9339,0.0089 -6.1329,0.04238 -1.1989,0.03349 -1.6807,0.04509 -2.1773,0.241923 -0.5177,0.205198 -0.905,0.557994 -1.2131,0.962391 -0.3079,0.403967 -0.5575,0.854841 -0.558,1.448 -7e-4,0.486718 0.1611,0.877534 0.3726,1.24846 0.7314,1.265691 2.0069,1.285952 3.0072,1.313797 1.2068,0.03478 3.2248,0.04238 6.7315,0.04238 3.8679,0 5.8733,-0.0015 7.0034,-0.04238 0.5649,-0.02041 0.9094,-0.04718 1.2113,-0.109484 0.3019,-0.0623 0.6001,-0.220634 0.7399,-0.324917 v 0 c 0.8378,-0.625146 1.2216,-1.628231 1.0507,-2.541065 -0.2491,-1.443989 -0.9573,-2.041752 -2.7776,-2.186135 -0.3912,-0.02155 -0.9172,-0.03896 -1.5858,-0.05297 -1.3373,-0.02803 -3.2378,-0.04238 -5.6737,-0.04238 z m 0.016,5.703712 c -3.8751,0 -5.884,0.0015 -7.0157,0.04238 -0.5659,0.02041 -0.9129,0.04544 -1.215,0.107717 -0.3021,0.06228 -0.6001,0.222363 -0.7398,0.326683 -0.828,0.617971 -1.2091,1.607229 -1.0542,2.512812 0.2003,1.274628 1.5067,2.081353 2.9684,2.209084 0.4612,0.01996 1.0429,0.03776 1.7428,0.05121 1.4692,0.02824 3.3718,0.04132 5.2764,0.04238 1.9047,0.0011 3.8089,-0.01049 5.2816,-0.03709 0.7364,-0.0133 1.3644,-0.03042 1.8366,-0.05121 0.3986,0.01966 0.8516,-0.08732 1.0842,-0.121839 0.9915,-0.356404 1.6851,-1.151449 1.8559,-2.064285 0.1709,-0.912835 -0.2129,-1.915919 -1.0507,-2.541065 v 0 c -0.1399,-0.104313 -0.4379,-0.264408 -0.7399,-0.326683 -0.3021,-0.06228 -0.6473,-0.08731 -1.2132,-0.107718 -1.1317,-0.0408 -3.1407,-0.04238 -7.0157,-0.04238 z m -0.1183,5.765516 c -1.9075,0 -3.4878,0.0039 -4.7184,0.13244 -0.6153,0.06429 -1.1446,0.155868 -1.614,0.324917 -0.4694,0.169049 -0.9278,0.434193 -1.1955,0.925308 -0.7053,1.294222 -0.2271,3.008518 1.1637,3.575856 0.8484,0.199802 1.7486,0.24735 2.5005,0.28607 1.1652,0.04753 2.6395,0.07319 4.1127,0.07593 1.4731,0.0027 2.9424,-0.01695 4.102,-0.06004 0.5799,-0.02154 1.0822,-0.04983 1.4781,-0.08476 0.1979,-0.01747 0.368,-0.03555 0.5209,-0.06004 0.1529,-0.02448 0.2556,-0.02322 0.4962,-0.141268 1.3193,-0.648214 1.8098,-2.304788 1.1054,-3.597046 -0.2946,-0.54065 -0.7817,-0.756603 -1.2767,-0.914713 -0.4949,-0.158111 -1.0652,-0.248401 -1.7288,-0.314322 -1.327,-0.131843 -3.0207,-0.148333 -4.9461,-0.148333 z"
     id="path1284"
     inkscape:connector-curvature="0"
     sodipodi:nodetypes="cccccccccccccsccccccccccccccccccscccccccccscccccccccccccccccccccccccccccccsccccccccccscccccsccc" />
  <path
     style="fill:#878787;fill-opacity:1;stroke-width:0.19127801"
     d="m 1251.1822,16.323128 c -0.362,0.02232 -5.8708,3.51715 -12.2417,7.76622 l -11.5835,7.72509 -0.1378,18.051935 -0.1389,18.051941 11.9753,7.879339 c 6.5866,4.333814 12.158,7.879343 12.3806,7.879343 0.2226,0 0.4041,-15.163873 0.4041,-33.697499 0,-26.628661 -0.138,-33.688487 -0.6581,-33.656369 z m 21.6872,2.889707 c -0.4911,0.0068 -0.8411,0.132021 -1.5035,0.47305 -1.3804,0.710765 -2.1377,1.78075 -2.2541,3.184851 -0.1077,1.297928 0.2999,2.251415 1.6875,3.955097 3.519,4.320609 6.3592,10.292207 7.4381,15.637336 2.1064,10.434721 -0.269,21.213504 -6.4705,29.359854 -0.7996,1.050499 -1.7062,2.290919 -2.0135,2.757045 -1.339,2.030905 -0.5797,4.675984 1.6598,5.784559 1.8665,0.923922 3.5393,0.348417 5.4369,-1.869569 4.0594,-4.744548 7.5912,-11.831791 9.1134,-18.290518 1.5366,-6.519518 1.5455,-13.903499 0.024,-20.370903 -1.5258,-6.488696 -4.9969,-13.504163 -9.0517,-18.294637 -1.4002,-1.654305 -2.1866,-2.168492 -3.5118,-2.296342 -0.2118,-0.02043 -0.3917,-0.03207 -0.5554,-0.0298 z m -7.7549,8.013029 c -0.5338,-0.01306 -1.0672,0.0777 -1.5508,0.279716 -1.3198,0.55128 -2.4423,1.992223 -2.5288,3.244496 -0.094,1.360452 0.038,1.814621 0.979,3.36173 2.2907,3.766144 3.5435,6.869178 4.3192,10.695009 0.2415,1.191312 0.3301,2.571598 0.3301,5.164452 0,2.592849 -0.089,3.973152 -0.3301,5.164459 -0.7757,3.825835 -2.0285,6.927837 -4.3192,10.693975 -0.9409,1.547115 -1.0729,2.001274 -0.979,3.361731 0.089,1.288556 1.2908,2.791001 2.609,3.260949 1.3832,0.493116 2.8689,0.253801 3.9222,-0.632444 1.2638,-1.063466 3.7382,-5.434643 5.005,-8.841893 1.5863,-4.266582 2.2799,-8.221574 2.2799,-13.006777 0,-4.785213 -0.6936,-8.740189 -2.2799,-13.006772 -1.2668,-3.407259 -3.7412,-7.779458 -5.005,-8.842919 -0.6702,-0.563891 -1.5619,-0.873971 -2.4516,-0.895712 z m -52.2369,4.851836 v 17.551122 c 0,9.652933 0.1586,17.708742 0.3517,17.901797 0.193,0.193061 3.0363,0.350676 6.3183,0.350676 h 5.9665 V 49.979497 32.0777 h -6.3183 z"
     id="path1245"
     inkscape:connector-curvature="0" />
  <path
     style="fill:#878787;fill-opacity:1;stroke-width:0.52652341"
     d="m 1337.6187,75.797573 -11.9756,-7.87966 0.1385,-18.05162 0.1386,-18.051614 11.5836,-7.725573 c 6.3709,-4.249071 11.8797,-7.74387 12.2416,-7.766221 0.5201,-0.03211 0.6582,7.028192 0.6582,33.656853 0,18.533626 -0.1821,33.697501 -0.4047,33.697501 -0.2226,0 -5.7937,-3.545851 -12.3802,-7.879666 z m -25.8269,-8.267054 c -0.193,-0.193055 -0.3509,-8.248865 -0.3509,-17.901798 v -17.55078 h 6.3183 6.3183 v 17.901797 17.901798 h -5.9673 c -3.282,0 -6.1252,-0.157957 -6.3184,-0.351017 z m 49.166,-5.679946 -2.8362,-2.871822 4.5542,-4.653925 4.5541,-4.653931 -4.4618,-4.438587 -4.4617,-4.438593 2.7437,-2.778317 c 1.5092,-1.528076 2.9944,-2.778316 3.3007,-2.778316 0.3063,0 2.4416,1.895789 4.745,4.212866 l 4.1882,4.212862 4.2349,-4.212862 c 2.3291,-2.317077 4.4748,-4.212866 4.7683,-4.212866 0.2934,0 1.8218,1.304588 3.3966,2.899091 l 2.8631,2.899085 -4.4491,4.472243 -4.449,4.472237 4.4553,4.478408 4.455,4.478409 -3.0159,3.015869 -3.0158,3.015868 -4.4784,-4.455141 -4.4784,-4.455142 -4.3548,4.332194 c -2.3952,2.382702 -4.5948,4.332192 -4.8883,4.332192 -0.2935,0 -1.8098,-1.29232 -3.3697,-2.871822 z"
     id="path1243"
     inkscape:connector-curvature="0"
     sodipodi:nodetypes="scccscssscscccccsccccccccssccsscccccccccssc" />
</svg>
