<?xml version="1.0" encoding="UTF-8" standalone="no"?>
<!-- Created with Inkscape (http://www.inkscape.org/) -->

<svg
   xmlns:dc="http://purl.org/dc/elements/1.1/"
   xmlns:cc="http://creativecommons.org/ns#"
   xmlns:rdf="http://www.w3.org/1999/02/22-rdf-syntax-ns#"
   xmlns:svg="http://www.w3.org/2000/svg"
   xmlns="http://www.w3.org/2000/svg"
   xmlns:sodipodi="http://sodipodi.sourceforge.net/DTD/sodipodi-0.dtd"
   xmlns:inkscape="http://www.inkscape.org/namespaces/inkscape"
   version="1.1"
   id="svg2"
   width="1500"
   height="100"
   viewBox="0 0 1500 100"
   sodipodi:docname="buttons.svg"
   inkscape:version="0.92.4 (5da689c313, 2019-01-14)"
   inkscape:export-filename="C:\Users\dan\Documents\mobile blocks\buttons.png"
   inkscape:export-xdpi="300"
   inkscape:export-ydpi="300">
  <metadata
     id="metadata8">
    <rdf:RDF>
      <cc:Work
         rdf:about="">
        <dc:format>image/svg+xml</dc:format>
        <dc:type
           rdf:resource="http://purl.org/dc/dcmitype/StillImage" />
        <dc:title></dc:title>
      </cc:Work>
    </rdf:RDF>
  </metadata>
  <defs
     id="defs6">
    <marker
       inkscape:isstock="true"
       style="overflow:visible"
       id="marker3672"
       refX="0"
       refY="0"
       orient="auto"
       inkscape:stockid="TriangleInS">
      <path
         transform="scale(-0.2)"
         style="fill:#000000;fill-opacity:1;fill-rule:evenodd;stroke:#000000;stroke-width:1.00000003pt;stroke-opacity:1"
         d="M 5.77,0 -2.88,5 V -5 Z"
         id="path3670"
         inkscape:connector-curvature="0" />
    </marker>
    <marker
       inkscape:isstock="true"
       style="overflow:visible"
       id="marker3512"
       refX="0"
       refY="0"
       orient="auto"
       inkscape:stockid="TriangleInS">
      <path
         transform="scale(-0.2)"
         style="fill:#000000;fill-opacity:1;fill-rule:evenodd;stroke:#000000;stroke-width:1.00000003pt;stroke-opacity:1"
         d="M 5.77,0 -2.88,5 V -5 Z"
         id="path3510"
         inkscape:connector-curvature="0" />
    </marker>
    <marker
       inkscape:isstock="true"
       style="overflow:visible"
       id="marker3502"
       refX="0"
       refY="0"
       orient="auto"
       inkscape:stockid="TriangleInS">
      <path
         transform="scale(-0.2)"
         style="fill:#000000;fill-opacity:1;fill-rule:evenodd;stroke:#000000;stroke-width:1.00000003pt;stroke-opacity:1"
         d="M 5.77,0 -2.88,5 V -5 Z"
         id="path3500"
         inkscape:connector-curvature="0" />
    </marker>
    <marker
       inkscape:isstock="true"
       style="overflow:visible"
       id="marker3184"
       refX="0"
       refY="0"
       orient="auto"
       inkscape:stockid="TriangleOutS">
      <path
         transform="scale(0.2)"
         style="fill:#000000;fill-opacity:1;fill-rule:evenodd;stroke:#000000;stroke-width:1.00000003pt;stroke-opacity:1"
         d="M 5.77,0 -2.88,5 V -5 Z"
         id="path3182"
         inkscape:connector-curvature="0" />
    </marker>
    <marker
       inkscape:isstock="true"
       style="overflow:visible"
       id="marker3036"
       refX="0"
       refY="0"
       orient="auto"
       inkscape:stockid="TriangleOutS">
      <path
         transform="scale(0.2)"
         style="fill:#000000;fill-opacity:1;fill-rule:evenodd;stroke:#000000;stroke-width:1.00000003pt;stroke-opacity:1"
         d="M 5.77,0 -2.88,5 V -5 Z"
         id="path3034"
         inkscape:connector-curvature="0" />
    </marker>
    <marker
       inkscape:isstock="true"
       style="overflow:visible"
       id="marker3026"
       refX="0"
       refY="0"
       orient="auto"
       inkscape:stockid="TriangleOutS">
      <path
         transform="scale(0.2)"
         style="fill:#000000;fill-opacity:1;fill-rule:evenodd;stroke:#000000;stroke-width:1.00000003pt;stroke-opacity:1"
         d="M 5.77,0 -2.88,5 V -5 Z"
         id="path3024"
         inkscape:connector-curvature="0" />
    </marker>
    <marker
       inkscape:isstock="true"
       style="overflow:visible"
       id="marker2738"
       refX="0"
       refY="0"
       orient="auto"
       inkscape:stockid="Arrow2Sstart">
      <path
         transform="matrix(0.3,0,0,0.3,-0.69,0)"
         d="M 8.7185878,4.0337352 -2.2072895,0.01601326 8.7185884,-4.0017078 c -1.7454984,2.3720609 -1.7354408,5.6174519 -6e-7,8.035443 z"
         style="fill:#000000;fill-opacity:1;fill-rule:evenodd;stroke:#000000;stroke-width:0.625;stroke-linejoin:round;stroke-opacity:1"
         id="path2736"
         inkscape:connector-curvature="0" />
    </marker>
    <marker
       inkscape:isstock="true"
       style="overflow:visible"
       id="marker2614"
       refX="0"
       refY="0"
       orient="auto"
       inkscape:stockid="Arrow2Sstart">
      <path
         transform="matrix(0.3,0,0,0.3,-0.69,0)"
         d="M 8.7185878,4.0337352 -2.2072895,0.01601326 8.7185884,-4.0017078 c -1.7454984,2.3720609 -1.7354408,5.6174519 -6e-7,8.035443 z"
         style="fill:#000000;fill-opacity:1;fill-rule:evenodd;stroke:#000000;stroke-width:0.625;stroke-linejoin:round;stroke-opacity:1"
         id="path2612"
         inkscape:connector-curvature="0" />
    </marker>
    <marker
       inkscape:isstock="true"
       style="overflow:visible"
       id="marker2604"
       refX="0"
       refY="0"
       orient="auto"
       inkscape:stockid="Arrow2Sstart">
      <path
         transform="matrix(0.3,0,0,0.3,-0.69,0)"
         d="M 8.7185878,4.0337352 -2.2072895,0.01601326 8.7185884,-4.0017078 c -1.7454984,2.3720609 -1.7354408,5.6174519 -6e-7,8.035443 z"
         style="fill:#000000;fill-opacity:1;fill-rule:evenodd;stroke:#000000;stroke-width:0.625;stroke-linejoin:round;stroke-opacity:1"
         id="path2602"
         inkscape:connector-curvature="0" />
    </marker>
    <marker
       inkscape:isstock="true"
       style="overflow:visible"
       id="marker2352"
       refX="0"
       refY="0"
       orient="auto"
       inkscape:stockid="Arrow1Sstart">
      <path
         transform="matrix(0.2,0,0,0.2,1.2,0)"
         style="fill:#000000;fill-opacity:1;fill-rule:evenodd;stroke:#000000;stroke-width:1.00000003pt;stroke-opacity:1"
         d="M 0,0 5,-5 -12.5,0 5,5 Z"
         id="path2350"
         inkscape:connector-curvature="0" />
    </marker>
    <marker
       inkscape:isstock="true"
       style="overflow:visible"
       id="marker2342"
       refX="0"
       refY="0"
       orient="auto"
       inkscape:stockid="Arrow1Sstart">
      <path
         transform="matrix(0.2,0,0,0.2,1.2,0)"
         style="fill:#000000;fill-opacity:1;fill-rule:evenodd;stroke:#000000;stroke-width:1.00000003pt;stroke-opacity:1"
         d="M 0,0 5,-5 -12.5,0 5,5 Z"
         id="path2340"
         inkscape:connector-curvature="0" />
    </marker>
    <marker
       inkscape:isstock="true"
       style="overflow:visible"
       id="marker2236"
       refX="0"
       refY="0"
       orient="auto"
       inkscape:stockid="Arrow1Sstart">
      <path
         transform="matrix(0.2,0,0,0.2,1.2,0)"
         style="fill:#000000;fill-opacity:1;fill-rule:evenodd;stroke:#000000;stroke-width:1.00000003pt;stroke-opacity:1"
         d="M 0,0 5,-5 -12.5,0 5,5 Z"
         id="path2234"
         inkscape:connector-curvature="0" />
    </marker>
    <marker
       inkscape:isstock="true"
       style="overflow:visible"
       id="marker2018"
       refX="0"
       refY="0"
       orient="auto"
       inkscape:stockid="Arrow1Sstart">
      <path
         transform="matrix(0.2,0,0,0.2,1.2,0)"
         style="fill:#000000;fill-opacity:1;fill-rule:evenodd;stroke:#000000;stroke-width:1.00000003pt;stroke-opacity:1"
         d="M 0,0 5,-5 -12.5,0 5,5 Z"
         id="path2016"
         inkscape:connector-curvature="0" />
    </marker>
    <marker
       inkscape:isstock="true"
       style="overflow:visible"
       id="marker1930"
       refX="0"
       refY="0"
       orient="auto"
       inkscape:stockid="Arrow1Sstart">
      <path
         transform="matrix(0.2,0,0,0.2,1.2,0)"
         style="fill:#000000;fill-opacity:1;fill-rule:evenodd;stroke:#000000;stroke-width:1.00000003pt;stroke-opacity:1"
         d="M 0,0 5,-5 -12.5,0 5,5 Z"
         id="path1928"
         inkscape:connector-curvature="0" />
    </marker>
    <marker
       inkscape:isstock="true"
       style="overflow:visible"
       id="marker1842"
       refX="0"
       refY="0"
       orient="auto"
       inkscape:stockid="Arrow1Sstart">
      <path
         transform="matrix(0.2,0,0,0.2,1.2,0)"
         style="fill:#000000;fill-opacity:1;fill-rule:evenodd;stroke:#000000;stroke-width:1.00000003pt;stroke-opacity:1"
         d="M 0,0 5,-5 -12.5,0 5,5 Z"
         id="path1840"
         inkscape:connector-curvature="0" />
    </marker>
    <marker
       inkscape:isstock="true"
       style="overflow:visible"
       id="marker1724"
       refX="0"
       refY="0"
       orient="auto"
       inkscape:stockid="Arrow1Send">
      <path
         transform="matrix(-0.2,0,0,-0.2,-1.2,0)"
         style="fill:#000000;fill-opacity:1;fill-rule:evenodd;stroke:#000000;stroke-width:1.00000003pt;stroke-opacity:1"
         d="M 0,0 5,-5 -12.5,0 5,5 Z"
         id="path1722"
         inkscape:connector-curvature="0" />
    </marker>
    <marker
       inkscape:isstock="true"
       style="overflow:visible"
       id="marker1648"
       refX="0"
       refY="0"
       orient="auto"
       inkscape:stockid="Arrow1Send">
      <path
         transform="matrix(-0.2,0,0,-0.2,-1.2,0)"
         style="fill:#000000;fill-opacity:1;fill-rule:evenodd;stroke:#000000;stroke-width:1.00000003pt;stroke-opacity:1"
         d="M 0,0 5,-5 -12.5,0 5,5 Z"
         id="path1646"
         inkscape:connector-curvature="0" />
    </marker>
    <marker
       inkscape:isstock="true"
       style="overflow:visible"
       id="marker1584"
       refX="0"
       refY="0"
       orient="auto"
       inkscape:stockid="Arrow1Send">
      <path
         transform="matrix(-0.2,0,0,-0.2,-1.2,0)"
         style="fill:#000000;fill-opacity:1;fill-rule:evenodd;stroke:#000000;stroke-width:1.00000003pt;stroke-opacity:1"
         d="M 0,0 5,-5 -12.5,0 5,5 Z"
         id="path1582"
         inkscape:connector-curvature="0" />
    </marker>
    <marker
       inkscape:isstock="true"
       style="overflow:visible"
       id="marker1464"
       refX="0"
       refY="0"
       orient="auto"
       inkscape:stockid="Arrow1Sstart">
      <path
         transform="matrix(0.2,0,0,0.2,1.2,0)"
         style="fill:#000000;fill-opacity:1;fill-rule:evenodd;stroke:#000000;stroke-width:1.00000003pt;stroke-opacity:1"
         d="M 0,0 5,-5 -12.5,0 5,5 Z"
         id="path1462"
         inkscape:connector-curvature="0" />
    </marker>
    <marker
       inkscape:isstock="true"
       style="overflow:visible"
       id="marker1418"
       refX="0"
       refY="0"
       orient="auto"
       inkscape:stockid="Arrow1Sstart">
      <path
         transform="matrix(0.2,0,0,0.2,1.2,0)"
         style="fill:#000000;fill-opacity:1;fill-rule:evenodd;stroke:#000000;stroke-width:1.00000003pt;stroke-opacity:1"
         d="M 0,0 5,-5 -12.5,0 5,5 Z"
         id="path1416"
         inkscape:connector-curvature="0" />
    </marker>
    <marker
       inkscape:isstock="true"
       style="overflow:visible"
       id="marker1408"
       refX="0"
       refY="0"
       orient="auto"
       inkscape:stockid="Arrow1Sstart">
      <path
         transform="matrix(0.2,0,0,0.2,1.2,0)"
         style="fill:#000000;fill-opacity:1;fill-rule:evenodd;stroke:#000000;stroke-width:1.00000003pt;stroke-opacity:1"
         d="M 0,0 5,-5 -12.5,0 5,5 Z"
         id="path1406"
         inkscape:connector-curvature="0" />
    </marker>
    <marker
       inkscape:isstock="true"
       style="overflow:visible"
       id="marker1276"
       refX="0"
       refY="0"
       orient="auto"
       inkscape:stockid="Arrow2Lstart">
      <path
         transform="matrix(1.1,0,0,1.1,1.1,0)"
         d="M 8.7185878,4.0337352 -2.2072895,0.01601326 8.7185884,-4.0017078 c -1.7454984,2.3720609 -1.7354408,5.6174519 -6e-7,8.035443 z"
         style="fill:#000000;fill-opacity:1;fill-rule:evenodd;stroke:#000000;stroke-width:0.625;stroke-linejoin:round;stroke-opacity:1"
         id="path1274"
         inkscape:connector-curvature="0" />
    </marker>
    <marker
       inkscape:isstock="true"
       style="overflow:visible"
       id="marker1248"
       refX="0"
       refY="0"
       orient="auto"
       inkscape:stockid="Arrow2Lstart">
      <path
         transform="matrix(1.1,0,0,1.1,1.1,0)"
         d="M 8.7185878,4.0337352 -2.2072895,0.01601326 8.7185884,-4.0017078 c -1.7454984,2.3720609 -1.7354408,5.6174519 -6e-7,8.035443 z"
         style="fill:#000000;fill-opacity:1;fill-rule:evenodd;stroke:#000000;stroke-width:0.625;stroke-linejoin:round;stroke-opacity:1"
         id="path1246"
         inkscape:connector-curvature="0" />
    </marker>
    <marker
       inkscape:isstock="true"
       style="overflow:visible"
       id="marker1226"
       refX="0"
       refY="0"
       orient="auto"
       inkscape:stockid="Arrow2Lstart">
      <path
         transform="matrix(1.1,0,0,1.1,1.1,0)"
         d="M 8.7185878,4.0337352 -2.2072895,0.01601326 8.7185884,-4.0017078 c -1.7454984,2.3720609 -1.7354408,5.6174519 -6e-7,8.035443 z"
         style="fill:#000000;fill-opacity:1;fill-rule:evenodd;stroke:#000000;stroke-width:0.625;stroke-linejoin:round;stroke-opacity:1"
         id="path1224"
         inkscape:connector-curvature="0" />
    </marker>
  </defs>
  <sodipodi:namedview
     pagecolor="#ffffff"
     bordercolor="#666666"
     borderopacity="1"
     objecttolerance="10"
     gridtolerance="10"
     guidetolerance="10"
     inkscape:pageopacity="0"
     inkscape:pageshadow="2"
     inkscape:window-width="2560"
     inkscape:window-height="1377"
     id="namedview4"
     showgrid="false"
     inkscape:zoom="1"
     inkscape:cx="950.09572"
     inkscape:cy="272.5307"
     inkscape:window-x="-8"
     inkscape:window-y="-8"
     inkscape:window-maximized="1"
     inkscape:current-layer="svg2"
     units="px" />
  <path
     style="opacity:1;fill:#878787;fill-opacity:1;stroke:none;stroke-width:0.79035431;stroke-linecap:round;stroke-linejoin:miter;stroke-miterlimit:4;stroke-dasharray:none;stroke-opacity:1;paint-order:stroke fill markers"
     d="m 551.85837,18.368176 a 31.632162,31.632162 0 0 0 -26.54105,14.493008 l -8.80859,-2.39909 7.27112,23.02744 18.21584,-16.0853 -7.94922,-2.16523 a 23.156493,23.156493 0 0 1 17.8119,-8.39569 23.156493,23.156493 0 0 1 23.15614,23.15613 23.156493,23.156493 0 0 1 -23.15614,23.15724 23.156493,23.156493 0 0 1 -18.80555,-9.6937 c -2.81781,0.74328 -5.18313,1.36404 -8.60942,2.26481 a 31.632162,31.632162 0 0 0 27.41497,15.90403 31.632162,31.632162 0 0 0 31.63239,-31.63238 31.632162,31.632162 0 0 0 -31.63239,-31.631268 z"
     id="path4535"
     inkscape:connector-curvature="0" />
  <path
     style="fill:#878787;fill-opacity:1;stroke-width:0.57291669"
     d="m 679.1581,70.612114 c 2.44349,-20.96089 -13.08204,-34.62946 -32.34521,-29.46387 -4.32134,0.96836 -8.19008,4.79536 -8.19008,4.79536 l 7.75248,4.54382 -22.97699,11.95068 -7.4344,-31.67186 9.70888,5.79992 c 10.53616,-10.25641 24.35428,-12.866426 36.33065,-10.05198 17.77583,3.46217 24.09968,19.72153 21.45498,34.67513 -0.85359,4.52135 -3.99134,12.51373 -4.82877,13.42937 -0.19697,0.21536 0.23146,-1.78991 0.52846,-4.00657 z"
     id="path4533-5"
     inkscape:connector-curvature="0"
     sodipodi:nodetypes="ccccccccccc" />
  <g
     id="g4997"
     transform="matrix(0.51295538,0,0,0.51295538,364.18973,212.8469)"
     style="fill:#878787;fill-opacity:1;stroke-width:1.11689377">
    <rect
       ry="9.8911648"
       y="-369.37256"
       x="112.93214"
       height="19.78233"
       width="108.7068"
       id="rect4603"
       style="opacity:1;fill:#878787;fill-opacity:1;stroke:none;stroke-width:1.54078567;stroke-linecap:round;stroke-linejoin:miter;stroke-miterlimit:4;stroke-dasharray:none;stroke-opacity:1;paint-order:stroke fill markers" />
    <rect
       ry="9.8911648"
       y="-327.35913"
       x="112.93214"
       height="19.78233"
       width="108.7068"
       id="rect4603-0"
       style="opacity:1;fill:#878787;fill-opacity:1;stroke:none;stroke-width:1.54078567;stroke-linecap:round;stroke-linejoin:miter;stroke-miterlimit:4;stroke-dasharray:none;stroke-opacity:1;paint-order:stroke fill markers" />
    <rect
       ry="9.8911648"
       y="-285.3457"
       x="112.93214"
       height="19.78233"
       width="108.7068"
       id="rect4603-9"
       style="opacity:1;fill:#878787;fill-opacity:1;stroke:none;stroke-width:1.54078567;stroke-linecap:round;stroke-linejoin:miter;stroke-miterlimit:4;stroke-dasharray:none;stroke-opacity:1;paint-order:stroke fill markers" />
  </g>
  <g
     style="stroke-width:1.12177217"
     id="g1269"
     transform="matrix(0.51072464,0,0,0.51072464,102.90608,-97.290557)">
    <path
       sodipodi:nodetypes="cccccccc"
       inkscape:connector-curvature="0"
       id="path4533-2"
       d="m 88.860467,331.04733 -12.884,-12.884 -21.670779,21.34485 -13.721794,-14.32248 20.77536,-21.16858 -11.197213,-11.91889 h 38.698426 z"
       style="fill:#878787;fill-opacity:1;stroke-width:1.12177217" />
    <path
       sodipodi:nodetypes="cccccccc"
       inkscape:connector-curvature="0"
       id="path4533-2-26-4"
       d="m 96.115147,244.99058 12.884003,12.884 21.67078,-21.34485 13.72179,14.32248 -20.77536,21.16859 11.19722,11.91888 H 96.115147 Z"
       style="fill:#878787;fill-opacity:1;stroke-width:1.12177217" />
    <path
       inkscape:connector-curvature="0"
       id="rect4823-9"
       d="m 103.65705,220.34371 v 9.40956 H 151.4448 V 277.541 h 9.40956 v -57.19729 z"
       style="opacity:1;fill:#878787;fill-opacity:1;stroke:none;stroke-width:1.54751551;stroke-linecap:round;stroke-linejoin:miter;stroke-miterlimit:4;stroke-dasharray:none;stroke-opacity:1;paint-order:stroke fill markers" />
    <path
       inkscape:connector-curvature="0"
       id="rect4823-9-7"
       d="m 80.761427,220.34371 v 9.40956 H 32.973684 V 277.541 h -9.409558 v -57.19729 z"
       style="opacity:1;fill:#878787;fill-opacity:1;stroke:none;stroke-width:1.54751551;stroke-linecap:round;stroke-linejoin:miter;stroke-miterlimit:4;stroke-dasharray:none;stroke-opacity:1;paint-order:stroke fill markers" />
    <path
       inkscape:connector-curvature="0"
       id="rect4823-9-7-6"
       d="m 80.761397,356.44729 v -9.40957 H 32.973675 V 299.25 h -9.409559 v 57.19729 z"
       style="opacity:1;fill:#878787;fill-opacity:1;stroke:none;stroke-width:1.54751551;stroke-linecap:round;stroke-linejoin:miter;stroke-miterlimit:4;stroke-dasharray:none;stroke-opacity:1;paint-order:stroke fill markers" />
    <path
       inkscape:connector-curvature="0"
       id="rect4823-9-7-6-3"
       d="m 103.65705,356.44729 v -9.40957 h 47.78772 V 299.25 h 9.40956 v 57.19729 z"
       style="opacity:1;fill:#878787;fill-opacity:1;stroke:none;stroke-width:1.54751551;stroke-linecap:round;stroke-linejoin:miter;stroke-miterlimit:4;stroke-dasharray:none;stroke-opacity:1;paint-order:stroke fill markers" />
  </g>
  <g
     style="stroke-width:1.12177217"
     id="g1261"
     transform="matrix(0.51072464,0,0,0.51072464,2.9063437,7.8857101)">
    <path
       sodipodi:nodetypes="cccccccc"
       inkscape:connector-curvature="0"
       id="path4533-2-5"
       d="M 139.78693,74.242789 126.90293,61.358791 105.23216,82.703641 91.510367,68.38116 112.28572,47.212578 101.08851,35.293694 h 38.69842 z"
       style="fill:#878787;fill-opacity:1;stroke-width:1.12177217" />
    <path
       inkscape:connector-curvature="0"
       id="rect4823-9-2"
       d="m 103.65705,14.408322 v 9.409563 h 47.78775 v 47.787723 h 9.40953 V 14.408322 Z"
       style="opacity:1;fill:#878787;fill-opacity:1;stroke:none;stroke-width:1.54751551;stroke-linecap:round;stroke-linejoin:miter;stroke-miterlimit:4;stroke-dasharray:none;stroke-opacity:1;paint-order:stroke fill markers" />
    <path
       inkscape:connector-curvature="0"
       id="rect4823-9-7-5"
       d="m 80.761427,14.408322 v 9.409563 H 32.973684 V 71.605608 H 23.564126 V 14.408322 Z"
       style="opacity:1;fill:#878787;fill-opacity:1;stroke:none;stroke-width:1.54751551;stroke-linecap:round;stroke-linejoin:miter;stroke-miterlimit:4;stroke-dasharray:none;stroke-opacity:1;paint-order:stroke fill markers" />
    <path
       inkscape:connector-curvature="0"
       id="rect4823-9-7-6-0"
       d="m 80.761427,150.51195 v -9.40957 H 32.973684 V 93.314662 h -9.409558 v 57.197288 z"
       style="opacity:1;fill:#878787;fill-opacity:1;stroke:none;stroke-width:1.54751551;stroke-linecap:round;stroke-linejoin:miter;stroke-miterlimit:4;stroke-dasharray:none;stroke-opacity:1;paint-order:stroke fill markers" />
    <path
       inkscape:connector-curvature="0"
       id="rect4823-9-7-6-3-0"
       d="m 103.65705,150.51195 v -9.40957 H 151.4448 V 93.314662 h 9.40953 v 57.197288 z"
       style="opacity:1;fill:#878787;fill-opacity:1;stroke:none;stroke-width:1.54751551;stroke-linecap:round;stroke-linejoin:miter;stroke-miterlimit:4;stroke-dasharray:none;stroke-opacity:1;paint-order:stroke fill markers" />
    <path
       sodipodi:nodetypes="cccccccc"
       inkscape:connector-curvature="0"
       id="path4533-2-26-4-8"
       d="M 44.771606,90.865905 57.655605,103.7499 79.326387,82.405053 93.048177,96.727533 72.272817,117.89612 83.470027,129.815 H 44.771606 Z"
       style="fill:#878787;fill-opacity:1;stroke-width:1.12177217" />
  </g>
  <g
     id="g5452"
     style="display:inline"
     transform="translate(0,-74.545452)">
    <rect
       y="0"
       x="698.18182"
       height="174.54546"
       width="174.54546"
       id="rect4999-1"
       style="display:none;opacity:1;fill:none;fill-opacity:1;stroke:#240000;stroke-width:1.37952757;stroke-linecap:round;stroke-linejoin:miter;stroke-miterlimit:4;stroke-dasharray:none;stroke-opacity:1;paint-order:stroke fill markers" />
    <rect
       y="0"
       x="523.63635"
       height="174.54546"
       width="174.54546"
       id="rect4999-46"
       style="display:none;opacity:1;fill:none;fill-opacity:1;stroke:#240000;stroke-width:1.37952757;stroke-linecap:round;stroke-linejoin:miter;stroke-miterlimit:4;stroke-dasharray:none;stroke-opacity:1;paint-order:stroke fill markers" />
    <rect
       y="0"
       x="349.09091"
       height="174.54546"
       width="174.54546"
       id="rect4999-47"
       style="display:none;opacity:1;fill:none;fill-opacity:1;stroke:#240000;stroke-width:1.37952757;stroke-linecap:round;stroke-linejoin:miter;stroke-miterlimit:4;stroke-dasharray:none;stroke-opacity:1;paint-order:stroke fill markers" />
    <rect
       y="0"
       x="174.54546"
       height="174.54546"
       width="174.54546"
       id="rect4999-4"
       style="display:none;opacity:1;fill:none;fill-opacity:1;stroke:#240000;stroke-width:1.37952757;stroke-linecap:round;stroke-linejoin:miter;stroke-miterlimit:4;stroke-dasharray:none;stroke-opacity:1;paint-order:stroke fill markers" />
    <rect
       y="0"
       x="0"
       height="174.54546"
       width="174.54546"
       id="rect4999"
       style="display:none;opacity:1;fill:none;fill-opacity:1;stroke:#240000;stroke-width:1.37952757;stroke-linecap:round;stroke-linejoin:miter;stroke-miterlimit:4;stroke-dasharray:none;stroke-opacity:1;paint-order:stroke fill markers" />
    <rect
       y="0"
       x="872.72729"
       height="174.54546"
       width="174.54546"
       id="rect4999-7"
       style="display:none;opacity:1;fill:none;fill-opacity:1;stroke:#240000;stroke-width:1.37952757;stroke-linecap:round;stroke-linejoin:miter;stroke-miterlimit:4;stroke-dasharray:none;stroke-opacity:1;paint-order:stroke fill markers" />
    <rect
       y="0"
       x="1047.2727"
       height="174.54546"
       width="174.54546"
       id="rect4999-4-2"
       style="display:none;opacity:1;fill:none;fill-opacity:1;stroke:#240000;stroke-width:1.37952757;stroke-linecap:round;stroke-linejoin:miter;stroke-miterlimit:4;stroke-dasharray:none;stroke-opacity:1;paint-order:stroke fill markers" />
    <rect
       y="0"
       x="1221.8182"
       height="174.54546"
       width="174.54546"
       id="rect4999-47-0"
       style="display:none;opacity:1;fill:none;fill-opacity:1;stroke:#240000;stroke-width:1.37952757;stroke-linecap:round;stroke-linejoin:miter;stroke-miterlimit:4;stroke-dasharray:none;stroke-opacity:1;paint-order:stroke fill markers" />
  </g>
  <path
     style="fill:#878787;fill-opacity:1;stroke:none;stroke-width:0.57291669px;stroke-linecap:butt;stroke-linejoin:miter;stroke-opacity:1"
     d="m 881.52023,50.000024 c -3.5e-4,17.40788 -14.11214,31.51967 -31.52004,31.52005 -17.40825,1.2e-4 -31.52056,-14.11182 -31.5209,-31.52005 -1.2e-4,-17.40856 14.11236,-31.520152 31.5209,-31.520095 17.40824,4.01e-4 31.52015,14.111885 31.52004,31.520095 z m -11.86986,-10.10601 -39.30123,-0.0712 19.65019,27.42868 z"
     id="path4679-32-4-5-8"
     inkscape:connector-curvature="0" />
  <path
     inkscape:connector-curvature="0"
     style="fill:#878787;fill-opacity:1;stroke:none;stroke-width:0.57291669px;stroke-linecap:butt;stroke-linejoin:miter;stroke-opacity:1"
     d="m 981.5202,50.000004 c -4.1e-4,-17.4079 -14.11215,-31.519699 -31.52005,-31.520043 -17.40824,-1.71e-4 -31.52055,14.111793 -31.52095,31.520043 -1.2e-4,17.40859 14.11237,31.5201 31.52095,31.52004 17.40819,-4e-4 31.52016,-14.11186 31.52005,-31.52004 z m -11.86986,10.10602 -39.30128,0.0712 19.65018,-27.42867 z"
     id="path4679-32-4-5-8-1" />
  <path
     sodipodi:type="star"
     style="opacity:0.997;fill:#878787;fill-opacity:1;stroke:none;stroke-width:3.77952766;stroke-linecap:butt;stroke-linejoin:miter;stroke-miterlimit:4;stroke-dasharray:none;stroke-opacity:1;paint-order:normal"
     id="path860"
     sodipodi:sides="5"
     sodipodi:cx="1386.8759"
     sodipodi:cy="61.613316"
     sodipodi:r1="61.075848"
     sodipodi:r2="31.068211"
     sodipodi:arg1="1.0471976"
     sodipodi:arg2="1.6755161"
     inkscape:flatsided="false"
     inkscape:rounded="0"
     inkscape:randomized="0"
     d="m 1417.4138,114.50655 -33.7855,-21.995219 -37.6202,14.490179 10.4785,-38.928751 -25.4063,-31.301231 40.2614,-2.064072 21.9183,-33.83540785 14.4045,37.65308785 38.9525,10.3898 -31.3589,25.33496 z"
     inkscape:transform-center-x="-0.02474629"
     inkscape:transform-center-y="-3.3178149"
     transform="matrix(0.56991377,-0.0585815,0.0585815,0.56991377,257.09107,94.084354)" />
  <g
     id="g1421"
     transform="matrix(-0.66633674,0,0,0.66633674,353.01451,-133.6431)"
     style="stroke-width:0.85980052">
    <circle
       r="2.4869537"
       cy="245.78331"
       cx="194.27817"
       id="path4626-89-0"
       style="opacity:1;fill:#878787;fill-opacity:1;stroke:none;stroke-width:1.18611848;stroke-linecap:round;stroke-linejoin:miter;stroke-miterlimit:4;stroke-dasharray:none;stroke-opacity:1;paint-order:stroke fill markers" />
    <circle
       r="2.4869537"
       cy="230.2981"
       cx="194.27817"
       id="path4626-8-3-5"
       style="opacity:1;fill:#878787;fill-opacity:1;stroke:none;stroke-width:1.18611848;stroke-linecap:round;stroke-linejoin:miter;stroke-miterlimit:4;stroke-dasharray:none;stroke-opacity:1;paint-order:stroke fill markers" />
    <circle
       r="2.4869537"
       cy="238.0407"
       cx="194.27817"
       id="path4626-1-9-0"
       style="opacity:1;fill:#878787;fill-opacity:1;stroke:none;stroke-width:1.18611848;stroke-linecap:round;stroke-linejoin:miter;stroke-miterlimit:4;stroke-dasharray:none;stroke-opacity:1;paint-order:stroke fill markers" />
    <path
       inkscape:connector-curvature="0"
       id="path4679-8"
       d="m 194.27817,214.5891 -13.74538,16.6617 4.76093,-0.006 8.98445,-10.89231 8.98445,10.86543 4.76094,-0.006 z"
       style="fill:#878787;fill-opacity:1;stroke:none;stroke-width:0.85980052px;stroke-linecap:butt;stroke-linejoin:miter;stroke-opacity:1" />
    <circle
       r="2.4869537"
       cy="253.52588"
       cx="194.27817"
       id="path4626-89-1-8"
       style="opacity:1;fill:#878787;fill-opacity:1;stroke:none;stroke-width:1.18611848;stroke-linecap:round;stroke-linejoin:miter;stroke-miterlimit:4;stroke-dasharray:none;stroke-opacity:1;paint-order:stroke fill markers" />
    <circle
       r="16.864655"
       cy="270.92294"
       cx="194.27817"
       id="path4626-89-7-0"
       style="opacity:1;fill:#878787;fill-opacity:1;stroke:none;stroke-width:1.1861186;stroke-linecap:round;stroke-linejoin:miter;stroke-miterlimit:4;stroke-dasharray:none;stroke-opacity:1;paint-order:stroke fill markers" />
  </g>
  <g
     id="g1383"
     transform="matrix(0.89572266,0,0,0.89572266,36.408039,-151.53999)"
     style="stroke-width:0.63961393">
    <path
       sodipodi:nodetypes="cccccccc"
       inkscape:connector-curvature="0"
       id="path4533-2-5-8"
       d="m 272.82664,242.53756 -4.70512,-4.70512 -7.91397,7.79494 -5.01107,-5.23044 7.58697,-7.73057 -4.08912,-4.35266 h 14.13231 z"
       style="fill:#878787;fill-opacity:1;stroke-width:0.63961393" />
    <path
       inkscape:connector-curvature="0"
       id="rect4823-9-2-1"
       d="m 259.63234,220.68656 v 3.43629 h 17.45165 v 17.45163 h 3.43628 v -20.88792 z"
       style="opacity:1;fill:#878787;fill-opacity:1;stroke:none;stroke-width:0.88236505;stroke-linecap:round;stroke-linejoin:miter;stroke-miterlimit:4;stroke-dasharray:none;stroke-opacity:1;paint-order:stroke fill markers" />
    <path
       inkscape:connector-curvature="0"
       id="rect4823-9-7-5-5"
       d="m 251.27107,220.68656 v 3.43629 h -17.45164 v 17.45163 h -3.43629 v -20.88792 z"
       style="opacity:1;fill:#878787;fill-opacity:1;stroke:none;stroke-width:0.88236505;stroke-linecap:round;stroke-linejoin:miter;stroke-miterlimit:4;stroke-dasharray:none;stroke-opacity:1;paint-order:stroke fill markers" />
    <path
       inkscape:connector-curvature="0"
       id="rect4823-9-7-6-0-9"
       d="m 251.27107,270.39035 v -3.43628 h -17.45164 v -17.45164 h -3.43629 v 20.88792 z"
       style="opacity:1;fill:#878787;fill-opacity:1;stroke:none;stroke-width:0.88236505;stroke-linecap:round;stroke-linejoin:miter;stroke-miterlimit:4;stroke-dasharray:none;stroke-opacity:1;paint-order:stroke fill markers" />
    <path
       inkscape:connector-curvature="0"
       id="rect4823-9-7-6-3-0-1"
       d="m 259.63234,270.39035 v -3.43628 h 17.45165 v -17.45164 h 3.43628 v 20.88792 z"
       style="opacity:1;fill:#878787;fill-opacity:1;stroke:none;stroke-width:0.88236505;stroke-linecap:round;stroke-linejoin:miter;stroke-miterlimit:4;stroke-dasharray:none;stroke-opacity:1;paint-order:stroke fill markers" />
    <path
       sodipodi:nodetypes="cccccccc"
       inkscape:connector-curvature="0"
       id="path4533-2-26-4-8-0"
       d="m 238.12792,248.60817 4.70512,4.70511 7.91396,-7.79494 5.01108,5.23044 -7.58697,7.73057 4.08912,4.35267 h -14.13231 z"
       style="fill:#878787;fill-opacity:1;stroke-width:0.63961393" />
  </g>
  <g
     id="g1461"
     transform="matrix(0.57291666,0,0,0.57291666,-4.2848627,1.7493941)">
    <g
       style="stroke-width:0.63961393"
       transform="matrix(1.5634432,0,0,1.5634432,245.5726,-385.13951)"
       id="g1375">
      <path
         style="fill:#878787;fill-opacity:1;stroke-width:0.63961393"
         d="m 254.22876,336.32021 -4.70511,-4.70511 -7.91397,7.79494 -5.01107,-5.23044 7.58696,-7.73057 -4.08912,-4.35267 h 14.13231 z"
         id="path4533-2-0"
         inkscape:connector-curvature="0"
         sodipodi:nodetypes="cccccccc" />
      <path
         style="fill:#878787;fill-opacity:1;stroke-width:0.63961393"
         d="m 256.87811,304.89308 4.70511,4.70512 7.91397,-7.79494 5.01108,5.23044 -7.58697,7.73057 4.08912,4.35266 h -14.13231 z"
         id="path4533-2-26-4-0"
         inkscape:connector-curvature="0"
         sodipodi:nodetypes="cccccccc" />
      <path
         style="opacity:1;fill:#878787;fill-opacity:1;stroke:none;stroke-width:0.88236505;stroke-linecap:round;stroke-linejoin:miter;stroke-miterlimit:4;stroke-dasharray:none;stroke-opacity:1;paint-order:stroke fill markers"
         d="m 259.63234,295.89227 v 3.43629 h 17.45164 v 17.45163 h 3.43629 v -20.88792 z"
         id="rect4823-9-79"
         inkscape:connector-curvature="0" />
      <path
         style="opacity:1;fill:#878787;fill-opacity:1;stroke:none;stroke-width:0.88236505;stroke-linecap:round;stroke-linejoin:miter;stroke-miterlimit:4;stroke-dasharray:none;stroke-opacity:1;paint-order:stroke fill markers"
         d="m 251.27107,295.89227 v 3.43629 h -17.45164 v 17.45163 h -3.43629 v -20.88792 z"
         id="rect4823-9-7-1"
         inkscape:connector-curvature="0" />
      <path
         style="opacity:1;fill:#878787;fill-opacity:1;stroke:none;stroke-width:0.88236505;stroke-linecap:round;stroke-linejoin:miter;stroke-miterlimit:4;stroke-dasharray:none;stroke-opacity:1;paint-order:stroke fill markers"
         d="m 251.27106,345.59605 v -3.43629 h -17.45164 v -17.45164 h -3.43628 v 20.88793 z"
         id="rect4823-9-7-6-03"
         inkscape:connector-curvature="0" />
      <path
         style="opacity:1;fill:#878787;fill-opacity:1;stroke:none;stroke-width:0.88236505;stroke-linecap:round;stroke-linejoin:miter;stroke-miterlimit:4;stroke-dasharray:none;stroke-opacity:1;paint-order:stroke fill markers"
         d="m 259.63234,345.59605 v -3.43629 h 17.45164 v -17.45164 h 3.43629 v 20.88793 z"
         id="rect4823-9-7-6-3-8"
         inkscape:connector-curvature="0" />
    </g>
    <g
       style="stroke-width:0.85980052"
       transform="matrix(1.1630605,0,0,-1.1630605,445.10068,434.70507)"
       id="g1429">
      <circle
         style="opacity:1;fill:#878787;fill-opacity:1;stroke:none;stroke-width:1.18611848;stroke-linecap:round;stroke-linejoin:miter;stroke-miterlimit:4;stroke-dasharray:none;stroke-opacity:1;paint-order:stroke fill markers"
         id="path4626-89-0-82"
         cx="109.31238"
         cy="320.35556"
         r="2.4869537" />
      <circle
         style="opacity:1;fill:#878787;fill-opacity:1;stroke:none;stroke-width:1.18611848;stroke-linecap:round;stroke-linejoin:miter;stroke-miterlimit:4;stroke-dasharray:none;stroke-opacity:1;paint-order:stroke fill markers"
         id="path4626-8-3-5-2"
         cx="109.31238"
         cy="304.87036"
         r="2.4869537" />
      <circle
         style="opacity:1;fill:#878787;fill-opacity:1;stroke:none;stroke-width:1.18611848;stroke-linecap:round;stroke-linejoin:miter;stroke-miterlimit:4;stroke-dasharray:none;stroke-opacity:1;paint-order:stroke fill markers"
         id="path4626-1-9-0-0"
         cx="109.31238"
         cy="312.61295"
         r="2.4869537" />
      <path
         style="fill:#878787;fill-opacity:1;stroke:none;stroke-width:0.85980052px;stroke-linecap:butt;stroke-linejoin:miter;stroke-opacity:1"
         d="m 109.31238,289.16136 -13.745382,16.66169 4.760932,-0.006 8.98445,-10.89231 8.98445,10.86542 4.76094,-0.006 z"
         id="path4679-8-4"
         inkscape:connector-curvature="0" />
      <circle
         style="opacity:1;fill:#878787;fill-opacity:1;stroke:none;stroke-width:1.18611848;stroke-linecap:round;stroke-linejoin:miter;stroke-miterlimit:4;stroke-dasharray:none;stroke-opacity:1;paint-order:stroke fill markers"
         id="path4626-89-1-8-1"
         cx="109.31238"
         cy="328.09811"
         r="2.4869537" />
      <circle
         style="opacity:1;fill:#878787;fill-opacity:1;stroke:none;stroke-width:1.1861186;stroke-linecap:round;stroke-linejoin:miter;stroke-miterlimit:4;stroke-dasharray:none;stroke-opacity:1;paint-order:stroke fill markers"
         id="path4626-89-7-0-4"
         cx="109.31238"
         cy="345.49518"
         r="16.864655" />
    </g>
  </g>
  <rect
     style="opacity:0.125;fill:#363629;fill-opacity:1;stroke:none;stroke-width:14.7111721;stroke-linecap:butt;stroke-linejoin:miter;stroke-miterlimit:4;stroke-dasharray:none;stroke-opacity:1;paint-order:normal"
     id="rect1208"
     width="100"
     height="100"
     x="0"
     y="138" />
  <rect
     style="opacity:0.125;fill:#363629;fill-opacity:1;stroke:none;stroke-width:14.7111721;stroke-linecap:butt;stroke-linejoin:miter;stroke-miterlimit:4;stroke-dasharray:none;stroke-opacity:1;paint-order:normal"
     id="rect1208-4"
     width="100"
     height="100"
     x="100"
     y="138" />
  <rect
     style="opacity:0.125;fill:#363629;fill-opacity:1;stroke:none;stroke-width:14.7111721;stroke-linecap:butt;stroke-linejoin:miter;stroke-miterlimit:4;stroke-dasharray:none;stroke-opacity:1;paint-order:normal"
     id="rect1208-1"
     width="100"
     height="100"
     x="200"
     y="138" />
  <rect
     style="opacity:0.125;fill:#363629;fill-opacity:1;stroke:none;stroke-width:14.7111721;stroke-linecap:butt;stroke-linejoin:miter;stroke-miterlimit:4;stroke-dasharray:none;stroke-opacity:1;paint-order:normal"
     id="rect1208-0"
     width="100"
     height="100"
     x="300"
     y="138" />
  <rect
     style="opacity:0.125;fill:#363629;fill-opacity:1;stroke:none;stroke-width:14.7111721;stroke-linecap:butt;stroke-linejoin:miter;stroke-miterlimit:4;stroke-dasharray:none;stroke-opacity:1;paint-order:normal"
     id="rect1208-9"
     width="100"
     height="100"
     x="400"
     y="138" />
  <rect
     style="opacity:0.125;fill:#363629;fill-opacity:1;stroke:none;stroke-width:14.7111721;stroke-linecap:butt;stroke-linejoin:miter;stroke-miterlimit:4;stroke-dasharray:none;stroke-opacity:1;paint-order:normal"
     id="rect1208-4-1"
     width="100"
     height="100"
     x="500"
     y="138" />
  <rect
     style="opacity:0.125;fill:#363629;fill-opacity:1;stroke:none;stroke-width:14.7111721;stroke-linecap:butt;stroke-linejoin:miter;stroke-miterlimit:4;stroke-dasharray:none;stroke-opacity:1;paint-order:normal"
     id="rect1208-1-6"
     width="100"
     height="100"
     x="600"
     y="138" />
  <rect
     style="opacity:0.125;fill:#363629;fill-opacity:1;stroke:none;stroke-width:14.7111721;stroke-linecap:butt;stroke-linejoin:miter;stroke-miterlimit:4;stroke-dasharray:none;stroke-opacity:1;paint-order:normal"
     id="rect1208-0-0"
     width="100"
     height="100"
     x="700"
     y="138" />
  <rect
     style="opacity:0.125;fill:#363629;fill-opacity:1;stroke:none;stroke-width:14.7111721;stroke-linecap:butt;stroke-linejoin:miter;stroke-miterlimit:4;stroke-dasharray:none;stroke-opacity:1;paint-order:normal"
     id="rect1208-2"
     width="100"
     height="100"
     x="800"
     y="138" />
  <rect
     style="opacity:0.125;fill:#363629;fill-opacity:1;stroke:none;stroke-width:14.7111721;stroke-linecap:butt;stroke-linejoin:miter;stroke-miterlimit:4;stroke-dasharray:none;stroke-opacity:1;paint-order:normal"
     id="rect1208-4-0"
     width="100"
     height="100"
     x="900"
     y="138" />
  <rect
     style="opacity:0.125;fill:#363629;fill-opacity:1;stroke:none;stroke-width:14.7111721;stroke-linecap:butt;stroke-linejoin:miter;stroke-miterlimit:4;stroke-dasharray:none;stroke-opacity:1;paint-order:normal"
     id="rect1208-1-0"
     width="100"
     height="100"
     x="1000"
     y="137.99998" />
  <rect
     style="opacity:0.125;fill:#363629;fill-opacity:1;stroke:none;stroke-width:14.7111721;stroke-linecap:butt;stroke-linejoin:miter;stroke-miterlimit:4;stroke-dasharray:none;stroke-opacity:1;paint-order:normal"
     id="rect1208-0-3"
     width="100"
     height="100"
     x="1100"
     y="138" />
  <path
     style="color:#000000;font-style:normal;font-variant:normal;font-weight:normal;font-stretch:normal;font-size:medium;line-height:normal;font-family:sans-serif;font-variant-ligatures:normal;font-variant-position:normal;font-variant-caps:normal;font-variant-numeric:normal;font-variant-alternates:normal;font-feature-settings:normal;text-indent:0;text-align:start;text-decoration:none;text-decoration-line:none;text-decoration-style:solid;text-decoration-color:#000000;letter-spacing:normal;word-spacing:normal;text-transform:none;writing-mode:lr-tb;direction:ltr;text-orientation:mixed;dominant-baseline:auto;baseline-shift:baseline;text-anchor:start;white-space:normal;shape-padding:0;clip-rule:nonzero;display:inline;overflow:visible;visibility:visible;opacity:1;isolation:auto;mix-blend-mode:normal;color-interpolation:sRGB;color-interpolation-filters:linearRGB;solid-color:#000000;solid-opacity:1;vector-effect:none;fill:#7d7d7b;fill-opacity:1;fill-rule:nonzero;stroke:none;stroke-width:1.91869581;stroke-linecap:butt;stroke-linejoin:miter;stroke-miterlimit:4;stroke-dasharray:none;stroke-dashoffset:0;stroke-opacity:1;color-rendering:auto;image-rendering:auto;shape-rendering:auto;text-rendering:auto;enable-background:accumulate"
     d="m 1151.0666,8.2996035 c -6.5226,-0.2208501 -13.0803,1.6571329 -18.4902,5.5234375 -5.6326,4.025379 -9.5546,9.892762 -11.0762,16.576172 -0.5878,2.581456 -0.7077,6.848016 -0.2832,9.589843 0.5518,3.563243 1.8236,6.973326 3.7618,10.097657 1.4007,2.25815 2.8211,3.88921 5.748,6.61914 3.5367,3.298707 4.9091,5.424251 5.8262,8.949219 0.8641,3.322284 2.7203,5.47057 5.6152,6.361328 0.5339,0.164305 1.0947,0.270569 2.2051,0.310547 1.1103,0.03998 2.8497,0.03523 6.0058,0.01758 2.8844,-0.103561 6.3205,0.111722 8.4727,-0.689451 2.2156,-1.081138 3.9295,-3.081317 4.4727,-5.443359 0.4734,-2.058658 1.4928,-4.30854 2.791,-6.138672 0.1148,-0.16191 0.6191,-0.746617 1.2402,-1.402344 0.6211,-0.655727 1.385,-1.4269 2.1328,-2.146484 4.3664,-4.201418 6.1399,-6.705676 7.877,-11.142579 1.2812,-3.272391 1.8023,-6.662789 1.6426,-10.568359 -0.2927,-7.160602 -3.1464,-13.2979 -8.5489,-18.425781 -2.6053,-2.472945 -4.7616,-3.939129 -7.9453,-5.400391 -3.6339,-1.6679386 -7.5337,-2.5549894 -11.4473,-2.6874995 z m -1.0585,5.9082025 c 1.6703,0 3.3409,0.122979 4.5507,0.367188 8.9801,1.812714 15.6357,7.951863 17.877,16.443359 0.4258,1.614715 0.4471,1.916604 0.457,4.759766 0.01,3.47654 -0.1118,4.298363 -1.0312,6.986328 -1.2456,3.641305 -2.8929,6.036069 -6.6075,9.541016 -2.7819,2.625173 -3.936,3.9752 -5.2871,6.199218 -0.9462,1.557715 -1.9342,3.946084 -2.3984,5.78125 -0.1866,0.737362 -0.3665,1.185445 -0.5352,1.445313 -0.1686,0.259868 -0.3114,0.378989 -0.6543,0.544922 -0.2923,0.141524 -0.2833,0.160838 -1.1269,0.203125 -0.8436,0.04229 -2.3833,0.04662 -5.2813,0.04297 -2.8208,-0.0035 -4.3619,-0.01217 -5.2226,-0.05469 -0.8607,-0.04252 -0.8923,-0.07087 -1.1055,-0.177735 -0.3469,-0.174016 -0.4446,-0.253276 -0.6113,-0.52539 -0.1667,-0.272115 -0.3674,-0.794147 -0.6152,-1.683594 -1.2926,-4.638849 -3.1561,-7.533281 -7.3829,-11.517578 -1.5276,-1.440062 -3.2627,-3.246965 -3.6484,-3.742188 -1.9413,-2.493398 -3.5508,-6.166745 -4.1133,-9.414062 -0.4055,-2.340474 -0.2487,-6.28899 0.3262,-8.458984 1.0633,-4.013613 2.9821,-7.320953 5.8652,-10.128907 3.263,-3.178036 7.3389,-5.304443 11.9942,-6.24414 1.2098,-0.244211 2.8804,-0.367188 4.5508,-0.367187 z m -0.018,58.939453 c -3.3729,0 -5.4571,0.0098 -6.7832,0.04687 -1.3261,0.03704 -1.859,0.04987 -2.4082,0.267579 -0.5726,0.22696 -1.001,0.61717 -1.3418,1.064453 -0.3405,0.446808 -0.6166,0.945498 -0.6172,1.601562 -8e-4,0.538334 0.1782,0.970597 0.4121,1.380859 0.809,1.399919 2.2198,1.422329 3.3262,1.453126 1.3347,0.03847 3.5668,0.04687 7.4453,0.04687 4.2781,0 6.4962,-0.0017 7.7461,-0.04687 0.6249,-0.02257 1.0059,-0.05218 1.3398,-0.121094 0.3339,-0.06891 0.6638,-0.244033 0.8184,-0.359375 v 0 c 0.9266,-0.691443 1.3511,-1.800906 1.1621,-2.810547 -0.2755,-1.597124 -1.0588,-2.258281 -3.0722,-2.417976 -0.4326,-0.02383 -1.0144,-0.04309 -1.7539,-0.05859 -1.4792,-0.031 -3.5812,-0.04687 -6.2754,-0.04687 z m 0.018,6.308594 c -4.2861,0 -6.508,0.0017 -7.7598,0.04687 -0.6259,0.02257 -1.0097,0.05026 -1.3438,0.119141 -0.3341,0.06888 -0.6637,0.245944 -0.8183,0.361328 -0.9158,0.683507 -1.3373,1.777676 -1.166,2.779297 0.2216,1.409803 1.6665,2.302081 3.2832,2.443359 0.5102,0.02208 1.1536,0.04176 1.9277,0.05664 1.625,0.03124 3.7293,0.0457 5.8359,0.04687 2.1067,0.0012 4.2129,-0.0116 5.8418,-0.04102 0.8145,-0.01471 1.5091,-0.03365 2.0313,-0.05664 0.4409,0.02174 0.9419,-0.09658 1.1992,-0.13476 1.0967,-0.3942 1.8638,-1.273561 2.0527,-2.283203 0.189,-1.009642 -0.2355,-2.119104 -1.1621,-2.810547 v 0 c -0.1547,-0.115375 -0.4843,-0.292448 -0.8184,-0.361328 -0.3341,-0.06888 -0.7159,-0.09657 -1.3418,-0.119141 -1.2518,-0.04513 -3.4738,-0.04687 -7.7597,-0.04687 z m -0.1309,6.376953 c -2.1098,0 -3.8577,0.0043 -5.2188,0.146485 -0.6805,0.07111 -1.2659,0.172398 -1.7851,0.359375 -0.5192,0.186976 -1.0262,0.480239 -1.3223,1.023437 -0.7801,1.431475 -0.2512,3.327573 1.2871,3.955078 0.9384,0.220991 1.934,0.273581 2.7657,0.316408 1.2888,0.05257 2.9194,0.08095 4.5488,0.08398 1.6294,0.003 3.2545,-0.01875 4.5371,-0.06641 0.6413,-0.02383 1.1969,-0.05511 1.6348,-0.09375 0.2189,-0.01932 0.407,-0.03932 0.5761,-0.06641 0.1692,-0.02708 0.2828,-0.02568 0.5489,-0.15625 1.4592,-0.716957 2.0017,-2.549212 1.2226,-3.978515 -0.3259,-0.597986 -0.8646,-0.836841 -1.4121,-1.011719 -0.5474,-0.174878 -1.1782,-0.274744 -1.9121,-0.347656 -1.4678,-0.145825 -3.3411,-0.164063 -5.4707,-0.164063 z"
     id="path1284"
     inkscape:connector-curvature="0"
     sodipodi:nodetypes="cccccccccccccsccccccccccccccccccscccccccccscccccccccccccccccccccccccccccccsccccccccccscccccsccc" />
</svg>
